<svg xmlns="http://www.w3.org/2000/svg" xmlns:xlink="http://www.w3.org/1999/xlink" width="1833" zoomAndPan="magnify" viewBox="0 0 1374.75 431.249996" height="575" preserveAspectRatio="xMidYMid meet" version="1.0"><defs><g/><clipPath id="e6bfe7bffc"><path d="M 813 276 L 873 276 L 873 350.21875 L 813 350.21875 Z M 813 276 " clip-rule="nonzero"/></clipPath><clipPath id="84e580a281"><path d="M 863.144531 350.523438 C 861.527344 350.453125 859.910156 350.136719 858.359375 349.570312 C 855.125 348.375 852.308594 346.546875 849.636719 344.332031 C 847.421875 342.5 845.378906 340.425781 843.410156 338.386719 C 841.371094 336.273438 839.4375 334.128906 837.605469 331.878906 C 833.703125 327.164062 830.113281 322.167969 826.984375 316.894531 C 823.816406 311.617188 821.109375 306.058594 818.785156 300.359375 C 816.21875 294.0625 814.25 287.449219 813.933594 280.625 C 813.863281 279.464844 814.460938 278.339844 815.234375 277.53125 C 816.042969 276.648438 817.203125 276.296875 818.328125 276.226562 C 819.421875 276.191406 820.6875 276.753906 821.425781 277.53125 C 822.269531 278.375 822.65625 279.464844 822.726562 280.625 C 822.761719 281.609375 822.867188 282.59375 822.972656 283.582031 C 823.78125 288.785156 825.503906 293.78125 827.511719 298.636719 C 828.320312 300.5 829.128906 302.328125 830.042969 304.160156 C 833.351562 310.878906 837.324219 317.28125 841.863281 323.222656 C 842.742188 324.351562 843.65625 325.476562 844.605469 326.601562 C 846.507812 328.851562 848.476562 331.035156 850.550781 333.109375 C 852.414062 335.007812 854.316406 336.910156 856.390625 338.5625 C 857.691406 339.511719 859.0625 340.390625 860.507812 341.058594 C 861.28125 341.375 862.089844 341.585938 862.933594 341.761719 C 863.320312 341.796875 863.707031 341.796875 864.09375 341.761719 C 864.339844 341.691406 864.585938 341.621094 864.832031 341.550781 C 865.183594 341.375 865.535156 341.164062 865.851562 340.953125 C 866.804688 340.285156 868.140625 340.25 869.230469 340.496094 C 870.355469 340.742188 871.234375 341.585938 871.867188 342.5 C 872.464844 343.453125 872.609375 344.824219 872.324219 345.878906 C 872.007812 347.039062 871.269531 347.8125 870.320312 348.515625 C 869.511719 349.078125 868.667969 349.429688 867.753906 349.816406 C 867.191406 350.0625 866.59375 350.207031 865.960938 350.3125 C 865.042969 350.417969 864.09375 350.558594 863.144531 350.523438 Z M 863.144531 350.523438 " clip-rule="nonzero"/></clipPath><clipPath id="07780d224d"><path d="M 813 250 L 923.8125 250 L 923.8125 329 L 813 329 Z M 813 250 " clip-rule="nonzero"/></clipPath><clipPath id="7ded827902"><path d="M 914.679688 325.335938 C 913.589844 320.480469 912.074219 315.730469 910.175781 311.160156 C 909.542969 309.679688 908.875 308.238281 908.171875 306.832031 C 905.53125 301.484375 902.367188 296.382812 898.742188 291.636719 C 897.757812 290.371094 896.738281 289.136719 895.683594 287.90625 C 891.707031 283.296875 887.242188 279.078125 882.457031 275.3125 C 881.226562 274.363281 879.960938 273.449219 878.691406 272.570312 C 873.804688 269.191406 868.5625 266.308594 863.074219 263.988281 C 857.9375 261.875 852.554688 260.152344 847.035156 259.34375 C 844.113281 258.992188 841.160156 258.921875 838.273438 259.238281 C 836.585938 259.519531 834.898438 259.941406 833.28125 260.574219 C 831.976562 261.171875 830.746094 261.875 829.585938 262.71875 C 828.566406 263.566406 827.617188 264.515625 826.773438 265.570312 C 825.855469 266.835938 825.082031 268.171875 824.449219 269.578125 C 823.710938 271.480469 823.183594 273.449219 822.832031 275.453125 C 822.621094 277.179688 822.585938 278.902344 822.65625 280.625 C 822.691406 281.785156 822.128906 282.910156 821.355469 283.722656 C 820.546875 284.601562 819.386719 284.953125 818.257812 285.023438 C 817.167969 285.058594 815.902344 284.496094 815.164062 283.722656 C 814.320312 282.875 813.933594 281.785156 813.863281 280.625 C 813.792969 279.21875 813.828125 277.847656 813.933594 276.4375 C 814.179688 273.519531 814.707031 270.566406 815.726562 267.820312 C 816.289062 266.308594 816.921875 264.796875 817.730469 263.386719 C 818.503906 262.015625 819.421875 260.785156 820.371094 259.554688 C 823.921875 255.085938 829.234375 252.132812 834.757812 251.007812 C 845.800781 248.753906 857.128906 252.027344 867.261719 256.351562 C 876.476562 260.257812 884.953125 265.78125 892.515625 272.359375 C 900.046875 278.9375 906.589844 286.710938 911.792969 295.257812 C 917 303.808594 920.941406 313.304688 923.121094 323.082031 C 923.648438 325.476562 922.417969 327.726562 920.0625 328.5 C 917.914062 329.132812 915.207031 327.585938 914.679688 325.335938 Z M 914.679688 325.335938 " clip-rule="nonzero"/></clipPath><clipPath id="0ad8c6f47c"><path d="M 817 229 L 881 229 L 881 247 L 817 247 Z M 817 229 " clip-rule="nonzero"/></clipPath><clipPath id="c0e6b0555a"><path d="M 841.125 238.34375 C 836.867188 238.976562 832.683594 240.101562 828.707031 241.71875 C 826.984375 242.457031 825.328125 243.300781 823.710938 244.21875 C 822.65625 244.816406 821.496094 244.921875 820.335938 244.675781 C 819.207031 244.429688 818.328125 243.585938 817.695312 242.667969 C 817.097656 241.71875 816.957031 240.347656 817.238281 239.292969 C 817.519531 238.238281 818.292969 237.21875 819.242188 236.652344 C 823.21875 234.367188 827.546875 232.574219 831.941406 231.308594 C 835.917969 230.179688 840.035156 229.546875 844.148438 229.265625 C 848.300781 228.984375 852.414062 229.230469 856.53125 229.792969 C 864.375 230.886719 872.042969 233.628906 878.726562 237.886719 C 880.804688 239.222656 881.472656 241.71875 880.3125 243.902344 C 879.820312 244.851562 878.691406 245.625 877.671875 245.90625 C 876.617188 246.1875 875.210938 246.046875 874.296875 245.449219 C 872.042969 244.007812 869.6875 242.773438 867.261719 241.71875 C 863.214844 240.066406 858.992188 238.941406 854.703125 238.308594 C 850.234375 237.816406 845.660156 237.816406 841.125 238.34375 Z M 841.125 238.34375 " clip-rule="nonzero"/></clipPath><clipPath id="e5891cd57c"><path d="M 798 209.460938 L 889 209.460938 L 889 231 L 798 231 Z M 798 209.460938 " clip-rule="nonzero"/></clipPath><clipPath id="8098a4d053"><path d="M 802.710938 230.816406 C 801.550781 230.851562 800.425781 230.289062 799.617188 229.511719 C 798.804688 228.773438 798.3125 227.472656 798.3125 226.417969 C 798.3125 225.398438 798.769531 223.992188 799.617188 223.320312 C 800.355469 222.6875 801.128906 222.089844 801.9375 221.527344 C 806.371094 218.152344 811.398438 215.617188 816.640625 213.71875 C 821.917969 211.785156 827.476562 210.660156 833.070312 210.058594 C 838.554688 209.460938 844.113281 209.566406 849.636719 210.128906 C 855.933594 210.800781 862.160156 212.03125 868.246094 213.71875 C 874.050781 215.335938 879.714844 217.308594 885.304688 219.488281 C 886.046875 219.699219 886.714844 220.085938 887.242188 220.613281 C 887.488281 220.894531 887.699219 221.210938 887.945312 221.492188 C 888.578125 222.476562 888.648438 223.746094 888.402344 224.871094 C 888.15625 225.925781 887.277344 226.980469 886.398438 227.507812 C 885.515625 228.035156 884.003906 228.351562 883.019531 227.964844 C 880.734375 227.085938 878.445312 226.242188 876.125 225.433594 C 868.175781 222.652344 860.015625 220.367188 851.640625 219.207031 C 850.164062 219.03125 848.6875 218.855469 847.210938 218.75 C 842.109375 218.328125 836.972656 218.398438 831.871094 219.03125 C 826.773438 219.769531 821.777344 221.070312 816.992188 223.003906 C 813.300781 224.625 809.78125 226.628906 806.582031 229.054688 C 806.371094 229.230469 806.125 229.40625 805.910156 229.582031 C 805.347656 230.109375 804.714844 230.5 803.976562 230.710938 C 803.519531 230.710938 803.132812 230.78125 802.710938 230.816406 Z M 802.710938 230.816406 " clip-rule="nonzero"/></clipPath><clipPath id="f81a6bc81e"><path d="M 778 254 L 877 254 L 877 350 L 778 350 Z M 778 254 " clip-rule="nonzero"/></clipPath><clipPath id="07c5bd75e9"><path d="M 866.910156 348.9375 C 865.78125 348.691406 864.867188 347.847656 864.269531 346.933594 C 863.671875 345.984375 863.53125 344.613281 863.8125 343.558594 C 863.953125 342.992188 864.199219 342.5 864.585938 342.042969 C 864.832031 341.65625 865.183594 341.339844 865.570312 341.058594 C 865.746094 340.882812 865.921875 340.707031 866.101562 340.53125 C 866.3125 340.25 866.453125 339.933594 866.628906 339.617188 C 866.875 338.914062 867.050781 338.210938 867.191406 337.472656 C 867.332031 335.992188 867.296875 334.480469 867.121094 333.003906 C 866.523438 328.921875 865.394531 324.949219 863.847656 321.148438 C 861.984375 316.894531 859.628906 312.882812 856.8125 309.1875 C 853.613281 305.109375 849.882812 301.449219 845.835938 298.25 C 841.160156 294.695312 835.988281 291.777344 830.570312 289.453125 C 829.128906 288.855469 827.652344 288.292969 826.140625 287.765625 C 820.195312 285.691406 814.003906 284.285156 807.777344 283.4375 C 804.257812 282.980469 800.742188 282.699219 797.222656 282.558594 C 803.976562 287.167969 810.238281 292.585938 815.761719 298.601562 C 816.570312 299.480469 816.992188 300.5 817.0625 301.695312 C 817.097656 302.855469 816.535156 303.984375 815.761719 304.792969 C 815.023438 305.601562 813.722656 306.09375 812.667969 306.09375 C 811.609375 306.09375 810.308594 305.601562 809.570312 304.792969 C 805.699219 300.570312 801.480469 296.699219 796.976562 293.183594 C 795.921875 292.375 794.867188 291.601562 793.8125 290.863281 C 789.484375 287.800781 784.945312 285.09375 780.199219 282.734375 C 779.175781 282.242188 778.507812 281.152344 778.191406 280.097656 C 777.839844 278.972656 778.085938 277.742188 778.648438 276.71875 C 778.683594 276.648438 778.71875 276.613281 778.753906 276.542969 C 778.789062 276.4375 778.789062 276.296875 778.824219 276.191406 C 779.140625 275.066406 779.882812 274.1875 780.832031 273.554688 C 782.835938 272.21875 784.804688 270.882812 786.8125 269.578125 C 793.847656 264.867188 800.882812 260.1875 807.917969 255.472656 C 808.902344 254.804688 810.203125 254.769531 811.292969 255.015625 C 812.417969 255.261719 813.300781 256.105469 813.933594 257.023438 C 814.53125 257.972656 814.671875 259.34375 814.390625 260.398438 C 814.074219 261.523438 813.335938 262.402344 812.382812 263.035156 C 810.378906 264.375 808.410156 265.710938 806.40625 267.011719 C 803.0625 269.226562 799.722656 271.480469 796.414062 273.695312 C 804.75 273.941406 813.160156 274.996094 821.25 277.074219 C 829.726562 279.253906 838.0625 282.59375 845.484375 287.273438 C 852.097656 291.425781 858.148438 296.699219 863.003906 302.820312 C 865.535156 306.023438 867.824219 309.328125 869.722656 312.953125 C 871.585938 316.503906 873.171875 320.304688 874.261719 324.175781 C 874.789062 325.96875 875.175781 327.796875 875.492188 329.625 C 875.84375 331.738281 876.160156 333.882812 876.125 336.027344 C 876.089844 337.261719 875.949219 338.492188 875.738281 339.722656 C 875.597656 340.566406 875.386719 341.410156 875.070312 342.183594 C 874.648438 343.273438 874.191406 344.367188 873.488281 345.316406 C 873.03125 345.914062 872.570312 346.546875 872.007812 347.109375 C 871.480469 347.636719 870.882812 348.058594 870.285156 348.515625 C 869.371094 349.183594 868 349.183594 866.910156 348.9375 Z M 866.910156 348.9375 " clip-rule="nonzero"/></clipPath><clipPath id="23e55b0dd2"><path d="M 134 189 L 228 189 L 228 262 L 134 262 Z M 134 189 " clip-rule="nonzero"/></clipPath><clipPath id="b90177d4b0"><path d="M 236.878906 216.132812 L 203.101562 340.398438 L 44.15625 297.195312 L 77.933594 172.925781 Z M 236.878906 216.132812 " clip-rule="nonzero"/></clipPath><clipPath id="562f25fd68"><path d="M 236.878906 216.132812 L 203.101562 340.398438 L 44.15625 297.195312 L 77.933594 172.925781 Z M 236.878906 216.132812 " clip-rule="nonzero"/></clipPath><clipPath id="54660bc84c"><path d="M 193.019531 261.03125 C 191.949219 260.472656 191.292969 259.378906 190.902344 258.277344 C 190.558594 257.15625 190.792969 255.730469 191.367188 254.738281 C 192 253.6875 192.988281 253.003906 194.121094 252.625 C 196.183594 251.925781 198.234375 251.257812 200.296875 250.558594 C 203.101562 249.644531 205.882812 248.679688 208.691406 247.765625 C 204.730469 246.609375 200.777344 245.269531 196.957031 243.734375 C 190.75 241.28125 184.71875 238.460938 178.921875 235.203125 C 173.425781 232.105469 168.105469 228.636719 163.082031 224.789062 C 157.800781 220.753906 152.75 216.441406 148.027344 211.761719 C 143.3125 207.042969 139 201.976562 135 196.609375 C 134.300781 195.65625 134.3125 194.210938 134.53125 193.125 C 134.816406 191.941406 135.695312 190.957031 136.699219 190.351562 C 137.667969 189.738281 139.121094 189.597656 140.1875 189.886719 C 140.800781 190.015625 141.332031 190.3125 141.785156 190.742188 C 142.273438 191.066406 142.65625 191.476562 142.96875 192.015625 C 144.402344 193.898438 145.886719 195.75 147.421875 197.542969 C 153.21875 204.3125 159.671875 210.496094 166.683594 216.03125 C 168.609375 217.507812 170.582031 218.960938 172.601562 220.386719 C 180.253906 225.675781 188.421875 230.1875 196.9375 233.835938 C 198.441406 234.476562 199.996094 235.089844 201.519531 235.65625 C 205.300781 237.066406 209.164062 238.308594 213.027344 239.394531 C 209.996094 233.417969 207.386719 227.132812 205.402344 220.671875 C 205.042969 219.46875 205.308594 218.203125 205.867188 217.132812 C 206.425781 216.0625 207.519531 215.40625 208.621094 215.019531 C 209.742188 214.675781 211.167969 214.910156 212.160156 215.484375 C 213.175781 216.105469 213.894531 217.101562 214.273438 218.234375 C 215.1875 221.195312 216.265625 224.121094 217.429688 226.996094 C 217.957031 228.285156 218.53125 229.550781 219.105469 230.8125 C 221.46875 235.886719 224.226562 240.761719 227.359375 245.390625 C 228.175781 246.605469 228.089844 248.1875 227.554688 249.453125 C 226.992188 250.828125 225.964844 251.65625 224.542969 252.109375 C 222.480469 252.808594 220.429688 253.472656 218.367188 254.175781 C 211.105469 256.589844 203.796875 259.035156 196.53125 261.453125 C 195.378906 261.902344 194.054688 261.578125 193.019531 261.03125 Z M 193.019531 261.03125 " clip-rule="nonzero"/></clipPath><clipPath id="af5e2ce610"><path d="M 126 189 L 162 189 L 162 275 L 126 275 Z M 126 189 " clip-rule="nonzero"/></clipPath><clipPath id="f3ab57e127"><path d="M 236.878906 216.132812 L 203.101562 340.398438 L 44.15625 297.195312 L 77.933594 172.925781 Z M 236.878906 216.132812 " clip-rule="nonzero"/></clipPath><clipPath id="2bf6ad3ddb"><path d="M 236.878906 216.132812 L 203.101562 340.398438 L 44.15625 297.195312 L 77.933594 172.925781 Z M 236.878906 216.132812 " clip-rule="nonzero"/></clipPath><clipPath id="9b72a33058"><path d="M 130.230469 272.449219 C 129.003906 272.039062 128.117188 271.378906 127.457031 270.285156 C 126.792969 269.222656 126.753906 267.953125 126.992188 266.796875 C 127.257812 265.683594 128.175781 264.558594 129.160156 264.027344 C 130.109375 263.480469 131.597656 263.199219 132.648438 263.558594 C 134.359375 264.140625 136.078125 264.570312 137.832031 264.855469 C 139.242188 265.007812 140.652344 265.011719 142.070312 264.863281 C 143.304688 264.664062 144.539062 264.347656 145.726562 263.90625 C 146.558594 263.523438 147.371094 263.058594 148.125 262.535156 C 148.714844 262.046875 149.289062 261.476562 149.792969 260.890625 C 150.398438 260.0625 150.910156 259.167969 151.359375 258.222656 C 151.925781 256.695312 152.304688 255.15625 152.554688 253.542969 C 152.867188 250.84375 152.851562 248.089844 152.746094 245.386719 C 152.628906 242.871094 152.429688 240.375 152.113281 237.882812 C 151.886719 236.332031 151.648438 234.816406 151.339844 233.28125 C 150.207031 227.476562 148.507812 221.78125 146.296875 216.292969 C 145.703125 214.832031 145.023438 213.386719 144.339844 211.980469 C 143 209.171875 141.484375 206.46875 139.875 203.816406 C 139.050781 202.484375 138.222656 201.191406 137.308594 199.910156 C 136.867188 199.292969 136.421875 198.675781 135.980469 198.058594 C 135.648438 197.589844 135.265625 197.179688 135.035156 196.621094 C 134.65625 195.90625 134.4375 195.160156 134.425781 194.355469 C 134.5 193.953125 134.535156 193.542969 134.605469 193.144531 C 134.886719 191.960938 135.765625 190.976562 136.769531 190.371094 C 137.738281 189.757812 139.191406 189.617188 140.257812 189.90625 C 141.253906 190.175781 142.621094 191.046875 143.027344 192.074219 C 143.269531 192.597656 143.644531 193.042969 143.972656 193.511719 C 147.792969 198.714844 151.027344 204.367188 153.625 210.265625 C 156.367188 216.472656 158.550781 222.90625 159.917969 229.542969 C 160.652344 233.023438 161.167969 236.601562 161.542969 240.140625 C 161.878906 243.402344 162.050781 246.695312 161.96875 249.957031 C 161.898438 252.035156 161.710938 254.125 161.347656 256.164062 C 161.082031 257.847656 160.664062 259.527344 160.003906 261.105469 C 159.554688 262.207031 159.113281 263.269531 158.527344 264.292969 C 157.945312 265.320312 157.191406 266.261719 156.441406 267.203125 C 155.285156 268.644531 153.777344 269.839844 152.207031 270.824219 C 149.066406 272.835938 145.363281 273.8125 141.691406 274.113281 C 139.703125 274.261719 137.804688 274.089844 135.816406 273.816406 C 133.933594 273.570312 132.039062 273.09375 130.230469 272.449219 Z M 130.230469 272.449219 " clip-rule="nonzero"/></clipPath><clipPath id="678de7b39d"><path d="M 133 266 L 199 266 L 199 325 L 133 325 Z M 133 266 " clip-rule="nonzero"/></clipPath><clipPath id="53aaf60da6"><path d="M 236.878906 216.132812 L 203.101562 340.398438 L 44.15625 297.195312 L 77.933594 172.925781 Z M 236.878906 216.132812 " clip-rule="nonzero"/></clipPath><clipPath id="aad8df80e7"><path d="M 236.878906 216.132812 L 203.101562 340.398438 L 44.15625 297.195312 L 77.933594 172.925781 Z M 236.878906 216.132812 " clip-rule="nonzero"/></clipPath><clipPath id="3911e1af49"><path d="M 176.503906 311.109375 C 174.488281 309.53125 172.511719 307.960938 170.496094 306.382812 C 163.449219 300.839844 156.367188 295.285156 149.320312 289.742188 C 148.402344 289.035156 148.058594 287.644531 148.015625 286.527344 C 147.972656 285.292969 148.558594 284.113281 149.40625 283.238281 C 150.167969 282.414062 151.515625 281.941406 152.625 281.9375 C 153.277344 281.921875 153.855469 282.042969 154.421875 282.347656 C 155.019531 282.546875 155.503906 282.871094 155.914062 283.328125 C 157.929688 284.90625 159.90625 286.472656 161.921875 288.050781 C 168.96875 293.597656 176.050781 299.148438 183.097656 304.691406 C 184.015625 305.398438 184.359375 306.792969 184.402344 307.910156 C 184.445312 309.144531 183.859375 310.320312 183.011719 311.199219 C 182.25 312.023438 180.902344 312.496094 179.792969 312.5 C 179.140625 312.511719 178.5625 312.394531 177.996094 312.085938 C 177.4375 311.898438 176.949219 311.574219 176.503906 311.109375 Z M 145.09375 324.109375 C 146.21875 323.765625 147.289062 323.0625 147.847656 321.992188 C 148.414062 320.886719 148.671875 319.660156 148.3125 318.453125 C 146.726562 312.484375 144.441406 306.707031 141.621094 301.207031 C 141.097656 300.1875 139.917969 299.332031 138.847656 299.042969 C 137.746094 298.742188 136.332031 298.890625 135.363281 299.507812 C 133.1875 300.902344 132.484375 303.496094 133.652344 305.800781 C 134.570312 307.617188 135.445312 309.457031 136.230469 311.351562 C 137.488281 314.441406 138.566406 317.636719 139.414062 320.847656 C 139.722656 321.960938 140.503906 323.015625 141.53125 323.597656 C 142.507812 324.207031 143.972656 324.453125 145.09375 324.109375 Z M 198.742188 280.574219 C 199.015625 279.425781 198.953125 278.109375 198.277344 277.085938 C 198.0625 276.757812 197.800781 276.457031 197.582031 276.132812 C 197.011719 275.558594 196.289062 275.132812 195.507812 274.917969 C 189.113281 272.304688 182.75 269.734375 176.359375 267.117188 C 175.328125 266.683594 173.773438 267.066406 172.871094 267.582031 C 171.875 268.152344 170.96875 269.242188 170.703125 270.355469 C 170.429688 271.5 170.492188 272.816406 171.167969 273.839844 C 171.386719 274.167969 171.648438 274.46875 171.867188 274.792969 C 172.433594 275.367188 173.160156 275.792969 173.941406 276.007812 C 180.332031 278.621094 186.699219 281.191406 193.089844 283.808594 C 194.117188 284.242188 195.671875 283.863281 196.578125 283.34375 C 197.570312 282.773438 198.480469 281.683594 198.742188 280.574219 Z M 198.742188 280.574219 " clip-rule="nonzero"/></clipPath><clipPath id="dcff985c44"><path d="M 50 216 L 137 216 L 137 303 L 50 303 Z M 50 216 " clip-rule="nonzero"/></clipPath><clipPath id="8a40505fc2"><path d="M 236.878906 216.132812 L 203.101562 340.398438 L 44.15625 297.195312 L 77.933594 172.925781 Z M 236.878906 216.132812 " clip-rule="nonzero"/></clipPath><clipPath id="2c48169ba7"><path d="M 236.878906 216.132812 L 203.101562 340.398438 L 44.15625 297.195312 L 77.933594 172.925781 Z M 236.878906 216.132812 " clip-rule="nonzero"/></clipPath><clipPath id="3825ee067f"><path d="M 99.644531 302.933594 C 103.765625 302.792969 107.9375 302.054688 111.761719 300.5 C 113.644531 299.75 115.441406 298.902344 117.179688 297.847656 C 118.882812 296.78125 120.503906 295.582031 122.042969 294.28125 C 124.871094 291.882812 127.289062 289.027344 129.3125 285.945312 C 131.375 282.84375 132.96875 279.378906 134.15625 275.847656 C 136.585938 268.601562 136.742188 260.855469 135.132812 253.429688 C 134.300781 249.613281 132.925781 245.957031 131.246094 242.445312 C 129.539062 238.886719 127.371094 235.625 124.96875 232.527344 C 122.789062 229.722656 120.285156 227.132812 117.597656 224.796875 C 113.945312 221.664062 109.9375 218.703125 105.246094 217.277344 C 103.871094 216.863281 102.410156 216.621094 100.980469 216.539062 C 99.785156 216.441406 98.59375 216.613281 97.398438 216.785156 C 96.519531 216.929688 95.65625 217.152344 94.835938 217.503906 C 93.71875 217.960938 92.683594 218.40625 91.71875 219.136719 C 91.101562 219.582031 90.484375 220.023438 89.957031 220.566406 C 89.382812 221.136719 88.894531 221.804688 88.417969 222.441406 C 87.691406 223.425781 87.21875 224.597656 86.875 225.726562 C 86.136719 228.160156 86.3125 230.878906 86.996094 233.28125 C 88.300781 237.757812 91.199219 241.5625 94.03125 245.195312 C 96.558594 248.402344 99.273438 251.472656 102.210938 254.292969 C 108.382812 260.25 115.445312 265.453125 123.054688 269.351562 C 124.027344 269.847656 125.007812 270.304688 125.992188 270.761719 C 125.582031 272.410156 125.023438 274.050781 124.398438 275.636719 C 123.210938 278.332031 121.71875 280.867188 119.980469 283.183594 C 118.375 285.152344 116.550781 286.945312 114.554688 288.542969 C 112.792969 289.820312 110.894531 290.90625 108.890625 291.8125 C 106.835938 292.628906 104.695312 293.195312 102.507812 293.515625 C 99.667969 293.851562 96.773438 293.828125 93.964844 293.484375 C 90.070312 292.921875 86.285156 291.816406 82.640625 290.328125 C 76.941406 287.828125 71.675781 284.449219 66.648438 280.75 C 65.28125 279.730469 63.917969 278.710938 62.597656 277.664062 C 61.058594 276.445312 59.519531 275.222656 57.980469 274.003906 C 57.570312 273.546875 57.046875 273.214844 56.488281 273.027344 C 55.921875 272.71875 55.34375 272.601562 54.691406 272.613281 C 53.582031 272.617188 52.269531 273.101562 51.472656 273.914062 C 50.660156 274.800781 50.039062 275.96875 50.082031 277.203125 C 50.125 278.320312 50.480469 279.679688 51.386719 280.421875 C 58.625 286.246094 65.914062 292.160156 74.175781 296.46875 C 78.15625 298.542969 82.347656 300.253906 86.695312 301.398438 C 90.910156 302.46875 95.324219 303.09375 99.644531 302.933594 Z M 115.171875 253.386719 C 110.75 249.855469 106.628906 245.910156 102.945312 241.625 C 101.929688 240.433594 100.964844 239.214844 100.03125 238.007812 C 98.578125 236.046875 97.207031 234.070312 96.207031 231.851562 C 95.96875 231.175781 95.769531 230.511719 95.625 229.78125 C 95.601562 229.433594 95.582031 229.085938 95.609375 228.710938 C 95.675781 228.460938 95.746094 228.210938 95.800781 228 C 95.894531 227.796875 96.023438 227.601562 96.144531 227.441406 C 96.355469 227.230469 96.566406 227.023438 96.765625 226.847656 C 97.089844 226.628906 97.453125 226.421875 97.839844 226.261719 C 98.34375 226.09375 98.839844 225.960938 99.359375 225.871094 C 99.941406 225.839844 100.476562 225.832031 101.074219 225.878906 C 102.054688 226.070312 102.980469 226.320312 103.910156 226.691406 C 105.945312 227.625 107.789062 228.851562 109.59375 230.21875 C 112.894531 232.835938 115.851562 235.855469 118.457031 239.199219 C 120.71875 242.257812 122.644531 245.566406 124.136719 249.066406 C 125.363281 252.148438 126.253906 255.332031 126.730469 258.628906 C 126.8125 259.453125 126.894531 260.277344 126.929688 261.128906 C 122.777344 258.851562 118.871094 256.226562 115.171875 253.386719 Z M 115.171875 253.386719 " clip-rule="nonzero"/></clipPath></defs><g fill="#ffffff" fill-opacity="1"><g transform="translate(60.195305, 197.471363)"><g><path d="M 1.96875 -137.6875 L 36.984375 -137.6875 L 50.359375 -57.828125 L 63.921875 -137.6875 L 98.9375 -137.6875 L 112.5 -57.828125 L 125.875 -137.6875 L 160.890625 -137.6875 L 131.1875 0 L 96.1875 0 L 81.421875 -80.046875 L 66.671875 0 L 31.671875 0 Z M 1.96875 -137.6875 "/></g></g></g><g fill="#ffffff" fill-opacity="1"><g transform="translate(227.969166, 197.471363)"><g><path d="M 41.703125 -108.578125 L 41.703125 -80.046875 L 60.578125 -80.046875 C 65.171875 -80.046875 68.710938 -81.421875 71.203125 -84.171875 C 73.691406 -86.929688 74.9375 -90.539062 74.9375 -95 C 74.9375 -99.59375 73.691406 -103.003906 71.203125 -105.234375 C 68.710938 -107.460938 65.171875 -108.578125 60.578125 -108.578125 Z M 41.703125 -51.328125 L 41.703125 0 L 6.890625 0 L 6.890625 -137.6875 L 68.25 -137.6875 C 81.226562 -137.6875 91.390625 -134.472656 98.734375 -128.046875 C 106.078125 -121.617188 109.75 -111.585938 109.75 -97.953125 C 109.75 -90.347656 108.601562 -83.890625 106.3125 -78.578125 C 104.019531 -73.265625 100.773438 -68.96875 96.578125 -65.6875 C 100.640625 -62.800781 103.847656 -59.128906 106.203125 -54.671875 C 108.566406 -50.210938 109.75 -45.363281 109.75 -40.125 L 109.75 -9.4375 C 109.75 -4.851562 111.585938 -1.707031 115.265625 0 L 80.25 0 C 78.539062 -0.394531 77.226562 -1.570312 76.3125 -3.53125 C 75.394531 -5.5 74.9375 -7.46875 74.9375 -9.4375 L 74.9375 -41.296875 C 74.9375 -44.054688 73.921875 -46.414062 71.890625 -48.375 C 69.859375 -50.34375 67.460938 -51.328125 64.703125 -51.328125 Z M 41.703125 -51.328125 "/></g></g></g><g fill="#ffffff" fill-opacity="1"><g transform="translate(351.291829, 197.471363)"><g><path d="M 7.078125 -137.6875 L 42.09375 -137.6875 L 42.09375 0 L 7.078125 0 Z M 7.078125 -137.6875 "/></g></g></g><g fill="#ffffff" fill-opacity="1"><g transform="translate(405.380769, 197.471363)"><g><path d="M 1.96875 -137.6875 L 104.828125 -137.6875 L 104.828125 -108.578125 L 70.8125 -108.578125 L 70.8125 0 L 36 0 L 36 -108.578125 L 1.96875 -108.578125 Z M 1.96875 -137.6875 "/></g></g></g><g fill="#ffffff" fill-opacity="1"><g transform="translate(517.295582, 197.471363)"><g><path d="M 7.078125 -137.6875 L 102.671875 -137.6875 L 102.671875 -108.578125 L 42.09375 -108.578125 L 42.09375 -82.609375 L 90.28125 -82.609375 L 90.28125 -55.078125 L 42.09375 -55.078125 L 42.09375 -29.109375 L 102.671875 -29.109375 L 102.671875 0 L 7.078125 0 Z M 7.078125 -137.6875 "/></g></g></g><g clip-path="url(#e6bfe7bffc)"><g clip-path="url(#84e580a281)"><path fill="#ffffff" d="M 872.609375 276.191406 L 813.863281 276.191406 L 813.863281 350.21875 L 872.609375 350.21875 Z M 872.609375 276.191406 " fill-opacity="1" fill-rule="nonzero"/></g></g><g clip-path="url(#07780d224d)"><g clip-path="url(#7ded827902)"><path fill="#ffffff" d="M 923.648438 248.753906 L 813.792969 248.753906 L 813.792969 329.132812 L 923.648438 329.132812 Z M 923.648438 248.753906 " fill-opacity="1" fill-rule="nonzero"/></g></g><g clip-path="url(#0ad8c6f47c)"><g clip-path="url(#c0e6b0555a)"><path fill="#ffffff" d="M 881.472656 228.984375 L 816.957031 228.984375 L 816.957031 246.1875 L 881.472656 246.1875 Z M 881.472656 228.984375 " fill-opacity="1" fill-rule="nonzero"/></g></g><g clip-path="url(#e5891cd57c)"><g clip-path="url(#8098a4d053)"><path fill="#ffffff" d="M 888.648438 209.460938 L 798.3125 209.460938 L 798.3125 230.851562 L 888.648438 230.851562 Z M 888.648438 209.460938 " fill-opacity="1" fill-rule="nonzero"/></g></g><g clip-path="url(#f81a6bc81e)"><g clip-path="url(#07c5bd75e9)"><path fill="#ffffff" d="M 876.160156 254.769531 L 777.839844 254.769531 L 777.839844 349.183594 L 876.160156 349.183594 Z M 876.160156 254.769531 " fill-opacity="1" fill-rule="nonzero"/></g></g><g clip-path="url(#23e55b0dd2)"><g clip-path="url(#b90177d4b0)"><g clip-path="url(#562f25fd68)"><g clip-path="url(#54660bc84c)"><path fill="#ffffff" d="M 246.476562 194.570312 L 140.761719 165.835938 L 116 256.925781 L 221.71875 285.664062 Z M 246.476562 194.570312 " fill-opacity="1" fill-rule="nonzero"/></g></g></g></g><g clip-path="url(#af5e2ce610)"><g clip-path="url(#f3ab57e127)"><g clip-path="url(#2bf6ad3ddb)"><g clip-path="url(#9b72a33058)"><path fill="#ffffff" d="M 183.476562 195.441406 L 129.183594 180.683594 L 105.328125 268.4375 L 159.625 283.195312 Z M 183.476562 195.441406 " fill-opacity="1" fill-rule="nonzero"/></g></g></g></g><g clip-path="url(#678de7b39d)"><g clip-path="url(#53aaf60da6)"><g clip-path="url(#aad8df80e7)"><g clip-path="url(#3911e1af49)"><path fill="#ffffff" d="M 213.640625 270.660156 L 137.0625 249.84375 L 117.859375 320.476562 L 194.4375 341.292969 Z M 213.640625 270.660156 " fill-opacity="1" fill-rule="nonzero"/></g></g></g></g><g clip-path="url(#dcff985c44)"><g clip-path="url(#8a40505fc2)"><g clip-path="url(#2c48169ba7)"><g clip-path="url(#3825ee067f)"><path fill="#ffffff" d="M 158.675781 222.402344 L 56.003906 194.496094 L 28.105469 297.132812 L 130.777344 325.042969 Z M 158.675781 222.402344 " fill-opacity="1" fill-rule="nonzero"/></g></g></g></g><g fill="#0e9f6e" fill-opacity="1"><g transform="translate(198.919027, 302.62381)"><g><path d="M 59.328125 -26.546875 C 58.398438 -26.546875 57.488281 -26.546875 56.59375 -26.546875 C 55.707031 -26.546875 54.832031 -26.546875 53.96875 -26.546875 C 52.757812 -26.492188 51.804688 -26.003906 51.109375 -25.078125 C 50.941406 -24.847656 50.769531 -24.628906 50.59375 -24.421875 C 50.414062 -24.222656 50.242188 -24.007812 50.078125 -23.78125 C 47.597656 -20.550781 44.941406 -17.492188 42.109375 -14.609375 C 39.285156 -11.734375 36.347656 -8.941406 33.296875 -6.234375 C 32.316406 -5.359375 31.304688 -4.53125 30.265625 -3.75 C 29.234375 -2.976562 28.140625 -2.273438 26.984375 -1.640625 C 25.191406 -0.546875 23.316406 0.140625 21.359375 0.421875 C 19.398438 0.710938 17.410156 0.6875 15.390625 0.34375 C 13.203125 -0.0625 11.285156 -0.910156 9.640625 -2.203125 C 7.992188 -3.503906 6.625 -5.132812 5.53125 -7.09375 C 4.726562 -8.476562 4.09375 -9.921875 3.625 -11.421875 C 3.164062 -12.921875 2.878906 -14.476562 2.765625 -16.09375 C 2.535156 -19.375 2.707031 -22.582031 3.28125 -25.71875 C 3.863281 -28.863281 4.875 -31.910156 6.3125 -34.859375 C 7.351562 -36.984375 8.578125 -38.96875 9.984375 -40.8125 C 11.398438 -42.664062 13.117188 -44.253906 15.140625 -45.578125 C 17.265625 -47.015625 19.476562 -47.890625 21.78125 -48.203125 C 24.09375 -48.523438 26.460938 -48.367188 28.890625 -47.734375 C 30.210938 -47.390625 31.40625 -46.828125 32.46875 -46.046875 C 33.539062 -45.273438 34.394531 -44.3125 35.03125 -43.15625 C 35.945312 -41.539062 36.675781 -39.835938 37.21875 -38.046875 C 37.769531 -36.265625 38.078125 -34.421875 38.140625 -32.515625 C 38.140625 -31.484375 37.976562 -30.472656 37.65625 -29.484375 C 37.34375 -28.503906 36.84375 -27.613281 36.15625 -26.8125 C 35.75 -26.289062 35.300781 -25.785156 34.8125 -25.296875 C 34.320312 -24.804688 33.816406 -24.332031 33.296875 -23.875 C 33.179688 -23.757812 33.019531 -23.671875 32.8125 -23.609375 C 32.613281 -23.554688 32.398438 -23.5 32.171875 -23.4375 C 31.648438 -23.257812 31.113281 -23.285156 30.5625 -23.515625 C 30.019531 -23.753906 29.601562 -24.070312 29.3125 -24.46875 C 28.675781 -25.570312 28.707031 -26.613281 29.40625 -27.59375 C 29.632812 -27.9375 29.890625 -28.265625 30.171875 -28.578125 C 30.460938 -28.898438 30.753906 -29.175781 31.046875 -29.40625 C 32.253906 -30.613281 32.6875 -32.140625 32.34375 -33.984375 C 32.164062 -34.960938 31.945312 -35.898438 31.6875 -36.796875 C 31.4375 -37.691406 31.078125 -38.570312 30.609375 -39.4375 C 29.804688 -41.050781 28.539062 -42.03125 26.8125 -42.375 C 23.351562 -43.070312 20.238281 -42.378906 17.46875 -40.296875 C 16.195312 -39.378906 15.097656 -38.285156 14.171875 -37.015625 C 13.253906 -35.742188 12.421875 -34.390625 11.671875 -32.953125 C 9.140625 -28.046875 8.046875 -22.859375 8.390625 -17.390625 C 8.441406 -15.253906 8.929688 -13.144531 9.859375 -11.0625 C 10.429688 -9.625 11.296875 -8.382812 12.453125 -7.34375 C 14.128906 -5.851562 16.003906 -5.09375 18.078125 -5.0625 C 20.148438 -5.03125 21.992188 -5.421875 23.609375 -6.234375 C 24.421875 -6.691406 25.195312 -7.164062 25.9375 -7.65625 C 26.6875 -8.144531 27.378906 -8.675781 28.015625 -9.25 C 30.609375 -11.445312 33.113281 -13.710938 35.53125 -16.046875 C 37.957031 -18.378906 40.269531 -20.8125 42.46875 -23.34375 C 42.582031 -23.519531 42.695312 -23.691406 42.8125 -23.859375 C 42.925781 -24.035156 43.039062 -24.210938 43.15625 -24.390625 C 43.382812 -24.847656 43.296875 -25.222656 42.890625 -25.515625 C 42.660156 -25.628906 42.429688 -25.757812 42.203125 -25.90625 C 41.972656 -26.050781 41.742188 -26.179688 41.515625 -26.296875 C 40.992188 -26.691406 40.675781 -27.265625 40.5625 -28.015625 C 40.5 -28.765625 40.65625 -29.441406 41.03125 -30.046875 C 41.40625 -30.660156 41.941406 -31.050781 42.640625 -31.21875 C 42.921875 -31.28125 43.191406 -31.320312 43.453125 -31.34375 C 43.710938 -31.375 43.957031 -31.390625 44.1875 -31.390625 C 44.769531 -31.503906 45.332031 -31.585938 45.875 -31.640625 C 46.425781 -31.703125 46.960938 -31.765625 47.484375 -31.828125 C 48.921875 -31.941406 49.957031 -32.519531 50.59375 -33.5625 C 51.050781 -34.1875 51.492188 -34.800781 51.921875 -35.40625 C 52.359375 -36.019531 52.8125 -36.613281 53.28125 -37.1875 C 55.632812 -40.414062 58.140625 -43.515625 60.796875 -46.484375 C 63.453125 -49.453125 66.335938 -52.207031 69.453125 -54.75 C 71.003906 -56.007812 72.644531 -57.113281 74.375 -58.0625 C 76.101562 -59.019531 77.890625 -59.875 79.734375 -60.625 C 80.953125 -61.082031 82.164062 -61.425781 83.375 -61.65625 C 84.875 -62.007812 86.34375 -61.925781 87.78125 -61.40625 C 89.851562 -60.65625 90.921875 -59.210938 90.984375 -57.078125 C 90.984375 -56.390625 90.9375 -55.695312 90.84375 -55 C 90.757812 -54.3125 90.546875 -53.648438 90.203125 -53.015625 C 89.796875 -52.378906 89.421875 -51.726562 89.078125 -51.0625 C 88.734375 -50.40625 88.332031 -49.757812 87.875 -49.125 C 86.65625 -47.394531 85.425781 -45.664062 84.1875 -43.9375 C 82.945312 -42.207031 81.722656 -40.445312 80.515625 -38.65625 C 79.992188 -37.90625 79.488281 -37.171875 79 -36.453125 C 78.507812 -35.734375 78.035156 -35 77.578125 -34.25 C 77.347656 -33.84375 77.1875 -33.453125 77.09375 -33.078125 C 77.007812 -32.703125 77.34375 -32.3125 78.09375 -31.90625 C 78.5 -31.738281 78.816406 -31.484375 79.046875 -31.140625 C 79.679688 -30.273438 79.828125 -29.378906 79.484375 -28.453125 C 79.015625 -27.359375 78.289062 -26.78125 77.3125 -26.71875 C 76.738281 -26.664062 76.132812 -26.625 75.5 -26.59375 C 74.863281 -26.5625 74.226562 -26.488281 73.59375 -26.375 C 73.019531 -26.375 72.585938 -26.113281 72.296875 -25.59375 C 70.046875 -22.019531 68 -18.847656 66.15625 -16.078125 C 64.3125 -13.316406 62.582031 -10.753906 60.96875 -8.390625 C 59.351562 -6.023438 57.738281 -3.660156 56.125 -1.296875 C 55.894531 -0.953125 55.445312 -0.75 54.78125 -0.6875 C 54.125 -0.632812 53.460938 -0.738281 52.796875 -1 C 52.128906 -1.257812 51.679688 -1.71875 51.453125 -2.375 C 51.222656 -3.039062 51.457031 -3.921875 52.15625 -5.015625 C 53.882812 -7.835938 55.710938 -10.503906 57.640625 -13.015625 C 59.578125 -15.523438 61.609375 -18.625 63.734375 -22.3125 C 63.960938 -22.71875 64.191406 -23.132812 64.421875 -23.5625 C 64.660156 -24 64.894531 -24.421875 65.125 -24.828125 C 65.351562 -25.285156 65.378906 -25.6875 65.203125 -26.03125 C 65.035156 -26.375 64.722656 -26.578125 64.265625 -26.640625 C 63.453125 -26.640625 62.628906 -26.640625 61.796875 -26.640625 C 60.960938 -26.640625 60.140625 -26.640625 59.328125 -26.640625 C 59.328125 -26.578125 59.328125 -26.546875 59.328125 -26.546875 Z M 63.21875 -32.265625 C 63.21875 -32.265625 63.21875 -32.273438 63.21875 -32.296875 C 63.21875 -32.328125 63.21875 -32.34375 63.21875 -32.34375 C 64.03125 -32.34375 64.851562 -32.34375 65.6875 -32.34375 C 66.519531 -32.34375 67.34375 -32.34375 68.15625 -32.34375 C 69.070312 -32.34375 69.757812 -32.71875 70.21875 -33.46875 C 70.507812 -33.8125 70.753906 -34.15625 70.953125 -34.5 C 71.160156 -34.851562 71.378906 -35.203125 71.609375 -35.546875 C 72.929688 -37.453125 74.253906 -39.367188 75.578125 -41.296875 C 76.910156 -43.222656 78.210938 -45.140625 79.484375 -47.046875 C 80.234375 -48.085938 80.953125 -49.109375 81.640625 -50.109375 C 82.328125 -51.117188 83.019531 -52.113281 83.71875 -53.09375 C 83.945312 -53.382812 84.132812 -53.6875 84.28125 -54 C 84.425781 -54.320312 84.554688 -54.628906 84.671875 -54.921875 C 84.785156 -55.085938 84.738281 -55.285156 84.53125 -55.515625 C 84.332031 -55.753906 84.144531 -55.84375 83.96875 -55.78125 C 83.570312 -55.726562 83.171875 -55.671875 82.765625 -55.609375 C 82.359375 -55.546875 81.957031 -55.429688 81.5625 -55.265625 C 80.0625 -54.691406 78.601562 -54 77.1875 -53.1875 C 75.769531 -52.382812 74.398438 -51.460938 73.078125 -50.421875 C 70.546875 -48.285156 68.15625 -46.019531 65.90625 -43.625 C 63.65625 -41.238281 61.519531 -38.71875 59.5 -36.0625 C 59.09375 -35.65625 58.6875 -35.207031 58.28125 -34.71875 C 57.882812 -34.226562 57.710938 -33.640625 57.765625 -32.953125 C 57.828125 -32.660156 58.054688 -32.472656 58.453125 -32.390625 C 58.859375 -32.304688 59.785156 -32.265625 61.234375 -32.265625 C 61.578125 -32.265625 61.90625 -32.265625 62.21875 -32.265625 C 62.539062 -32.265625 62.875 -32.265625 63.21875 -32.265625 Z M 63.21875 -32.265625 "/></g></g></g><g fill="#0e9f6e" fill-opacity="1"><g transform="translate(271.038976, 302.62381)"><g><path d="M 37.015625 -43.421875 C 35.972656 -43.421875 34.929688 -43.476562 33.890625 -43.59375 C 32.859375 -43.707031 31.851562 -43.878906 30.875 -44.109375 C 30.351562 -44.222656 29.832031 -44.351562 29.3125 -44.5 C 28.800781 -44.644531 28.285156 -44.742188 27.765625 -44.796875 C 27.472656 -44.910156 27.179688 -44.796875 26.890625 -44.453125 C 26.609375 -44.109375 26.523438 -43.789062 26.640625 -43.5 C 26.753906 -43.15625 26.851562 -42.820312 26.9375 -42.5 C 27.019531 -42.1875 27.148438 -41.882812 27.328125 -41.59375 C 27.960938 -40.613281 28.65625 -39.691406 29.40625 -38.828125 C 30.15625 -37.960938 30.960938 -37.128906 31.828125 -36.328125 C 32.515625 -35.742188 33.203125 -35.175781 33.890625 -34.625 C 34.585938 -34.082031 35.253906 -33.523438 35.890625 -32.953125 C 36.578125 -32.367188 37.207031 -31.742188 37.78125 -31.078125 C 38.363281 -30.421875 38.941406 -29.75 39.515625 -29.0625 C 40.847656 -27.5 41.757812 -25.8125 42.25 -24 C 42.738281 -22.1875 42.925781 -20.328125 42.8125 -18.421875 C 42.75 -16.628906 42.441406 -14.894531 41.890625 -13.21875 C 41.347656 -11.550781 40.5 -10 39.34375 -8.5625 C 37.15625 -5.675781 34.5625 -3.285156 31.5625 -1.390625 C 29.425781 -0.117188 27.21875 0.726562 24.9375 1.15625 C 22.664062 1.59375 20.289062 1.640625 17.8125 1.296875 C 15.914062 1.003906 14.085938 0.546875 12.328125 -0.078125 C 10.566406 -0.710938 8.90625 -1.640625 7.34375 -2.859375 C 5.726562 -4.117188 4.332031 -5.515625 3.15625 -7.046875 C 1.976562 -8.578125 1.128906 -10.351562 0.609375 -12.375 C 0.546875 -12.65625 0.484375 -12.925781 0.421875 -13.1875 C 0.367188 -13.445312 0.316406 -13.691406 0.265625 -13.921875 C -0.484375 -20.722656 0.867188 -27.125 4.328125 -33.125 C 4.847656 -34.039062 5.453125 -34.875 6.140625 -35.625 C 6.828125 -36.375 7.546875 -37.097656 8.296875 -37.796875 C 8.703125 -38.078125 9.164062 -38.363281 9.6875 -38.65625 C 10.664062 -39.113281 11.5625 -39 12.375 -38.3125 C 13.0625 -37.851562 13.445312 -37.25 13.53125 -36.5 C 13.625 -35.75 13.410156 -35.054688 12.890625 -34.421875 C 12.773438 -34.242188 12.628906 -34.082031 12.453125 -33.9375 C 12.273438 -33.800781 12.128906 -33.675781 12.015625 -33.5625 C 9.773438 -31.425781 8.160156 -29.015625 7.171875 -26.328125 C 6.191406 -23.648438 5.703125 -20.785156 5.703125 -17.734375 C 5.703125 -17.617188 5.703125 -17.488281 5.703125 -17.34375 C 5.703125 -17.195312 5.703125 -17.066406 5.703125 -16.953125 C 5.648438 -15.335938 5.910156 -13.863281 6.484375 -12.53125 C 7.054688 -11.207031 7.894531 -10 9 -8.90625 C 13.601562 -4.519531 19.019531 -3.109375 25.25 -4.671875 C 26.175781 -4.898438 27.054688 -5.257812 27.890625 -5.75 C 28.722656 -6.238281 29.515625 -6.769531 30.265625 -7.34375 C 31.765625 -8.5 33.207031 -9.914062 34.59375 -11.59375 C 35.457031 -12.570312 36.078125 -13.625 36.453125 -14.75 C 36.828125 -15.875 37.046875 -17.066406 37.109375 -18.328125 C 37.160156 -19.367188 37.097656 -20.46875 36.921875 -21.625 C 36.804688 -22.425781 36.550781 -23.175781 36.15625 -23.875 C 35.226562 -25.601562 33.957031 -27.1875 32.34375 -28.625 C 31.65625 -29.195312 30.960938 -29.757812 30.265625 -30.3125 C 29.578125 -30.863281 28.914062 -31.425781 28.28125 -32 C 26.257812 -33.789062 24.441406 -35.835938 22.828125 -38.140625 C 22.023438 -39.347656 21.421875 -40.613281 21.015625 -41.9375 C 20.609375 -43.269531 20.664062 -44.6875 21.1875 -46.1875 C 21.414062 -46.988281 21.128906 -47.707031 20.328125 -48.34375 C 20.035156 -48.570312 19.71875 -48.800781 19.375 -49.03125 C 19.03125 -49.257812 18.710938 -49.519531 18.421875 -49.8125 C 17.671875 -50.445312 16.945312 -51.082031 16.25 -51.71875 C 15.5625 -52.351562 14.875 -52.988281 14.1875 -53.625 C 13.71875 -54.082031 13.28125 -54.597656 12.875 -55.171875 C 12.476562 -55.753906 12.132812 -56.332031 11.84375 -56.90625 C 11.726562 -57.25 11.640625 -57.59375 11.578125 -57.9375 C 11.523438 -58.289062 11.472656 -58.609375 11.421875 -58.890625 C 11.359375 -59.359375 11.5 -59.804688 11.84375 -60.234375 C 12.195312 -60.671875 12.570312 -60.972656 12.96875 -61.140625 C 13.488281 -61.316406 14.050781 -61.359375 14.65625 -61.265625 C 15.257812 -61.179688 15.707031 -60.941406 16 -60.546875 C 16.226562 -60.304688 16.414062 -60.039062 16.5625 -59.75 C 16.707031 -59.46875 16.894531 -59.179688 17.125 -58.890625 C 19.03125 -56.410156 21.363281 -54.335938 24.125 -52.671875 C 24.707031 -52.378906 25.195312 -52.40625 25.59375 -52.75 C 26.570312 -53.382812 27.46875 -54.019531 28.28125 -54.65625 C 30.53125 -56.382812 32.90625 -57.828125 35.40625 -58.984375 C 37.914062 -60.140625 40.554688 -61.003906 43.328125 -61.578125 C 44.535156 -61.867188 45.742188 -62.023438 46.953125 -62.046875 C 48.171875 -62.078125 49.414062 -62.035156 50.6875 -61.921875 C 51.488281 -61.867188 52.410156 -61.640625 53.453125 -61.234375 C 54.890625 -60.773438 55.894531 -59.921875 56.46875 -58.671875 C 57.050781 -57.429688 57.109375 -56.125 56.640625 -54.75 C 56.128906 -52.957031 55.207031 -51.457031 53.875 -50.25 C 52.207031 -48.632812 50.378906 -47.25 48.390625 -46.09375 C 46.398438 -44.9375 44.222656 -44.160156 41.859375 -43.765625 C 41.046875 -43.648438 40.234375 -43.578125 39.421875 -43.546875 C 38.617188 -43.515625 37.816406 -43.472656 37.015625 -43.421875 Z M 35.984375 -49.03125 C 36.492188 -49.03125 36.863281 -49.03125 37.09375 -49.03125 C 37.332031 -49.03125 37.507812 -49.03125 37.625 -49.03125 C 40.039062 -48.976562 42.269531 -49.410156 44.3125 -50.328125 C 46.363281 -51.253906 48.226562 -52.550781 49.90625 -54.21875 C 50.019531 -54.34375 50.117188 -54.460938 50.203125 -54.578125 C 50.285156 -54.691406 50.359375 -54.804688 50.421875 -54.921875 C 50.535156 -55.085938 50.535156 -55.328125 50.421875 -55.640625 C 50.304688 -55.960938 50.132812 -56.15625 49.90625 -56.21875 C 49.789062 -56.269531 49.660156 -56.3125 49.515625 -56.34375 C 49.367188 -56.375 49.238281 -56.414062 49.125 -56.46875 C 48.257812 -56.53125 47.394531 -56.515625 46.53125 -56.421875 C 45.664062 -56.335938 44.800781 -56.210938 43.9375 -56.046875 C 41.976562 -55.640625 40.117188 -55.015625 38.359375 -54.171875 C 36.597656 -53.335938 34.878906 -52.375 33.203125 -51.28125 C 33.035156 -51.113281 32.953125 -51.03125 32.953125 -51.03125 C 32.890625 -50.851562 32.816406 -50.675781 32.734375 -50.5 C 32.648438 -50.332031 32.609375 -50.160156 32.609375 -49.984375 C 32.609375 -49.753906 32.804688 -49.582031 33.203125 -49.46875 C 33.785156 -49.40625 34.332031 -49.332031 34.84375 -49.25 C 35.363281 -49.164062 35.742188 -49.09375 35.984375 -49.03125 Z M 35.984375 -49.03125 "/></g></g></g><g fill="#0e9f6e" fill-opacity="1"><g transform="translate(317.821872, 302.62381)"><g><path d="M 37.015625 -43.421875 C 35.972656 -43.421875 34.929688 -43.476562 33.890625 -43.59375 C 32.859375 -43.707031 31.851562 -43.878906 30.875 -44.109375 C 30.351562 -44.222656 29.832031 -44.351562 29.3125 -44.5 C 28.800781 -44.644531 28.285156 -44.742188 27.765625 -44.796875 C 27.472656 -44.910156 27.179688 -44.796875 26.890625 -44.453125 C 26.609375 -44.109375 26.523438 -43.789062 26.640625 -43.5 C 26.753906 -43.15625 26.851562 -42.820312 26.9375 -42.5 C 27.019531 -42.1875 27.148438 -41.882812 27.328125 -41.59375 C 27.960938 -40.613281 28.65625 -39.691406 29.40625 -38.828125 C 30.15625 -37.960938 30.960938 -37.128906 31.828125 -36.328125 C 32.515625 -35.742188 33.203125 -35.175781 33.890625 -34.625 C 34.585938 -34.082031 35.253906 -33.523438 35.890625 -32.953125 C 36.578125 -32.367188 37.207031 -31.742188 37.78125 -31.078125 C 38.363281 -30.421875 38.941406 -29.75 39.515625 -29.0625 C 40.847656 -27.5 41.757812 -25.8125 42.25 -24 C 42.738281 -22.1875 42.925781 -20.328125 42.8125 -18.421875 C 42.75 -16.628906 42.441406 -14.894531 41.890625 -13.21875 C 41.347656 -11.550781 40.5 -10 39.34375 -8.5625 C 37.15625 -5.675781 34.5625 -3.285156 31.5625 -1.390625 C 29.425781 -0.117188 27.21875 0.726562 24.9375 1.15625 C 22.664062 1.59375 20.289062 1.640625 17.8125 1.296875 C 15.914062 1.003906 14.085938 0.546875 12.328125 -0.078125 C 10.566406 -0.710938 8.90625 -1.640625 7.34375 -2.859375 C 5.726562 -4.117188 4.332031 -5.515625 3.15625 -7.046875 C 1.976562 -8.578125 1.128906 -10.351562 0.609375 -12.375 C 0.546875 -12.65625 0.484375 -12.925781 0.421875 -13.1875 C 0.367188 -13.445312 0.316406 -13.691406 0.265625 -13.921875 C -0.484375 -20.722656 0.867188 -27.125 4.328125 -33.125 C 4.847656 -34.039062 5.453125 -34.875 6.140625 -35.625 C 6.828125 -36.375 7.546875 -37.097656 8.296875 -37.796875 C 8.703125 -38.078125 9.164062 -38.363281 9.6875 -38.65625 C 10.664062 -39.113281 11.5625 -39 12.375 -38.3125 C 13.0625 -37.851562 13.445312 -37.25 13.53125 -36.5 C 13.625 -35.75 13.410156 -35.054688 12.890625 -34.421875 C 12.773438 -34.242188 12.628906 -34.082031 12.453125 -33.9375 C 12.273438 -33.800781 12.128906 -33.675781 12.015625 -33.5625 C 9.773438 -31.425781 8.160156 -29.015625 7.171875 -26.328125 C 6.191406 -23.648438 5.703125 -20.785156 5.703125 -17.734375 C 5.703125 -17.617188 5.703125 -17.488281 5.703125 -17.34375 C 5.703125 -17.195312 5.703125 -17.066406 5.703125 -16.953125 C 5.648438 -15.335938 5.910156 -13.863281 6.484375 -12.53125 C 7.054688 -11.207031 7.894531 -10 9 -8.90625 C 13.601562 -4.519531 19.019531 -3.109375 25.25 -4.671875 C 26.175781 -4.898438 27.054688 -5.257812 27.890625 -5.75 C 28.722656 -6.238281 29.515625 -6.769531 30.265625 -7.34375 C 31.765625 -8.5 33.207031 -9.914062 34.59375 -11.59375 C 35.457031 -12.570312 36.078125 -13.625 36.453125 -14.75 C 36.828125 -15.875 37.046875 -17.066406 37.109375 -18.328125 C 37.160156 -19.367188 37.097656 -20.46875 36.921875 -21.625 C 36.804688 -22.425781 36.550781 -23.175781 36.15625 -23.875 C 35.226562 -25.601562 33.957031 -27.1875 32.34375 -28.625 C 31.65625 -29.195312 30.960938 -29.757812 30.265625 -30.3125 C 29.578125 -30.863281 28.914062 -31.425781 28.28125 -32 C 26.257812 -33.789062 24.441406 -35.835938 22.828125 -38.140625 C 22.023438 -39.347656 21.421875 -40.613281 21.015625 -41.9375 C 20.609375 -43.269531 20.664062 -44.6875 21.1875 -46.1875 C 21.414062 -46.988281 21.128906 -47.707031 20.328125 -48.34375 C 20.035156 -48.570312 19.71875 -48.800781 19.375 -49.03125 C 19.03125 -49.257812 18.710938 -49.519531 18.421875 -49.8125 C 17.671875 -50.445312 16.945312 -51.082031 16.25 -51.71875 C 15.5625 -52.351562 14.875 -52.988281 14.1875 -53.625 C 13.71875 -54.082031 13.28125 -54.597656 12.875 -55.171875 C 12.476562 -55.753906 12.132812 -56.332031 11.84375 -56.90625 C 11.726562 -57.25 11.640625 -57.59375 11.578125 -57.9375 C 11.523438 -58.289062 11.472656 -58.609375 11.421875 -58.890625 C 11.359375 -59.359375 11.5 -59.804688 11.84375 -60.234375 C 12.195312 -60.671875 12.570312 -60.972656 12.96875 -61.140625 C 13.488281 -61.316406 14.050781 -61.359375 14.65625 -61.265625 C 15.257812 -61.179688 15.707031 -60.941406 16 -60.546875 C 16.226562 -60.304688 16.414062 -60.039062 16.5625 -59.75 C 16.707031 -59.46875 16.894531 -59.179688 17.125 -58.890625 C 19.03125 -56.410156 21.363281 -54.335938 24.125 -52.671875 C 24.707031 -52.378906 25.195312 -52.40625 25.59375 -52.75 C 26.570312 -53.382812 27.46875 -54.019531 28.28125 -54.65625 C 30.53125 -56.382812 32.90625 -57.828125 35.40625 -58.984375 C 37.914062 -60.140625 40.554688 -61.003906 43.328125 -61.578125 C 44.535156 -61.867188 45.742188 -62.023438 46.953125 -62.046875 C 48.171875 -62.078125 49.414062 -62.035156 50.6875 -61.921875 C 51.488281 -61.867188 52.410156 -61.640625 53.453125 -61.234375 C 54.890625 -60.773438 55.894531 -59.921875 56.46875 -58.671875 C 57.050781 -57.429688 57.109375 -56.125 56.640625 -54.75 C 56.128906 -52.957031 55.207031 -51.457031 53.875 -50.25 C 52.207031 -48.632812 50.378906 -47.25 48.390625 -46.09375 C 46.398438 -44.9375 44.222656 -44.160156 41.859375 -43.765625 C 41.046875 -43.648438 40.234375 -43.578125 39.421875 -43.546875 C 38.617188 -43.515625 37.816406 -43.472656 37.015625 -43.421875 Z M 35.984375 -49.03125 C 36.492188 -49.03125 36.863281 -49.03125 37.09375 -49.03125 C 37.332031 -49.03125 37.507812 -49.03125 37.625 -49.03125 C 40.039062 -48.976562 42.269531 -49.410156 44.3125 -50.328125 C 46.363281 -51.253906 48.226562 -52.550781 49.90625 -54.21875 C 50.019531 -54.34375 50.117188 -54.460938 50.203125 -54.578125 C 50.285156 -54.691406 50.359375 -54.804688 50.421875 -54.921875 C 50.535156 -55.085938 50.535156 -55.328125 50.421875 -55.640625 C 50.304688 -55.960938 50.132812 -56.15625 49.90625 -56.21875 C 49.789062 -56.269531 49.660156 -56.3125 49.515625 -56.34375 C 49.367188 -56.375 49.238281 -56.414062 49.125 -56.46875 C 48.257812 -56.53125 47.394531 -56.515625 46.53125 -56.421875 C 45.664062 -56.335938 44.800781 -56.210938 43.9375 -56.046875 C 41.976562 -55.640625 40.117188 -55.015625 38.359375 -54.171875 C 36.597656 -53.335938 34.878906 -52.375 33.203125 -51.28125 C 33.035156 -51.113281 32.953125 -51.03125 32.953125 -51.03125 C 32.890625 -50.851562 32.816406 -50.675781 32.734375 -50.5 C 32.648438 -50.332031 32.609375 -50.160156 32.609375 -49.984375 C 32.609375 -49.753906 32.804688 -49.582031 33.203125 -49.46875 C 33.785156 -49.40625 34.332031 -49.332031 34.84375 -49.25 C 35.363281 -49.164062 35.742188 -49.09375 35.984375 -49.03125 Z M 35.984375 -49.03125 "/></g></g></g><g fill="#0e9f6e" fill-opacity="1"><g transform="translate(364.604762, 302.62381)"><g><path d="M 2.515625 -15.484375 C 2.628906 -18.191406 3.101562 -20.785156 3.9375 -23.265625 C 4.769531 -25.742188 6.140625 -27.992188 8.046875 -30.015625 C 8.617188 -30.585938 9.191406 -31.117188 9.765625 -31.609375 C 10.347656 -32.097656 10.984375 -32.546875 11.671875 -32.953125 C 12.648438 -33.472656 13.628906 -33.734375 14.609375 -33.734375 C 15.128906 -33.734375 15.617188 -33.570312 16.078125 -33.25 C 16.546875 -32.9375 16.835938 -32.519531 16.953125 -32 C 17.117188 -31.476562 17.128906 -30.957031 16.984375 -30.4375 C 16.847656 -29.925781 16.578125 -29.523438 16.171875 -29.234375 C 15.992188 -29.171875 15.816406 -29.082031 15.640625 -28.96875 C 15.472656 -28.851562 15.304688 -28.738281 15.140625 -28.625 C 13.578125 -27.9375 12.320312 -26.972656 11.375 -25.734375 C 10.425781 -24.492188 9.632812 -23.09375 9 -21.53125 C 7.613281 -17.90625 7.523438 -14.21875 8.734375 -10.46875 C 9.597656 -7.695312 11.472656 -5.910156 14.359375 -5.109375 C 16.203125 -4.640625 17.929688 -4.953125 19.546875 -6.046875 C 20.460938 -6.566406 21.296875 -7.1875 22.046875 -7.90625 C 22.796875 -8.632812 23.460938 -9.429688 24.046875 -10.296875 C 24.679688 -11.160156 25.253906 -11.992188 25.765625 -12.796875 C 26.691406 -14.242188 27.585938 -15.6875 28.453125 -17.125 C 29.316406 -18.5625 30.210938 -20.003906 31.140625 -21.453125 C 31.597656 -22.203125 31.507812 -22.894531 30.875 -23.53125 C 30.695312 -23.695312 30.507812 -23.863281 30.3125 -24.03125 C 30.113281 -24.207031 29.925781 -24.382812 29.75 -24.5625 C 28.132812 -26.226562 26.921875 -28.070312 26.109375 -30.09375 C 25.304688 -32.113281 24.757812 -34.21875 24.46875 -36.40625 C 24.351562 -37.382812 24.425781 -38.347656 24.6875 -39.296875 C 24.945312 -40.253906 25.335938 -41.164062 25.859375 -42.03125 C 26.898438 -43.644531 28.097656 -45.085938 29.453125 -46.359375 C 30.804688 -47.628906 32.316406 -48.722656 33.984375 -49.640625 C 35.023438 -50.160156 36.078125 -50.648438 37.140625 -51.109375 C 38.210938 -51.566406 39.296875 -52 40.390625 -52.40625 C 43.617188 -53.675781 46.859375 -54.957031 50.109375 -56.25 C 53.367188 -57.550781 56.554688 -58.984375 59.671875 -60.546875 C 60.304688 -60.890625 60.941406 -61.234375 61.578125 -61.578125 C 62.210938 -61.921875 62.847656 -62.238281 63.484375 -62.53125 C 64.285156 -62.875 65.03125 -62.875 65.71875 -62.53125 C 66.414062 -62.1875 66.878906 -61.582031 67.109375 -60.71875 C 67.222656 -60.132812 67.164062 -59.640625 66.9375 -59.234375 C 66.644531 -58.609375 66.269531 -58.117188 65.8125 -57.765625 C 65.40625 -57.484375 64.972656 -57.222656 64.515625 -56.984375 C 64.054688 -56.753906 63.597656 -56.5 63.140625 -56.21875 C 61.691406 -55.46875 60.347656 -54.570312 59.109375 -53.53125 C 57.867188 -52.5 56.703125 -51.375 55.609375 -50.15625 C 53.703125 -48.082031 51.984375 -45.890625 50.453125 -43.578125 C 48.929688 -41.273438 47.507812 -38.882812 46.1875 -36.40625 C 45.257812 -34.738281 44.316406 -33.050781 43.359375 -31.34375 C 42.410156 -29.644531 41.421875 -27.988281 40.390625 -26.375 C 40.328125 -26.207031 40.238281 -26.035156 40.125 -25.859375 C 40.007812 -25.679688 39.925781 -25.507812 39.875 -25.34375 C 39.757812 -24.875 39.816406 -24.523438 40.046875 -24.296875 C 40.328125 -24.015625 40.640625 -23.769531 40.984375 -23.5625 C 41.335938 -23.363281 41.628906 -23.148438 41.859375 -22.921875 C 42.316406 -22.515625 42.570312 -21.992188 42.625 -21.359375 C 42.6875 -20.722656 42.578125 -20.175781 42.296875 -19.71875 C 42.054688 -19.257812 41.660156 -18.910156 41.109375 -18.671875 C 40.566406 -18.441406 40.066406 -18.359375 39.609375 -18.421875 C 39.546875 -18.472656 39.429688 -18.5 39.265625 -18.5 C 38.222656 -19.019531 37.457031 -19.28125 36.96875 -19.28125 C 36.476562 -19.28125 36.070312 -19.0625 35.75 -18.625 C 35.4375 -18.195312 34.992188 -17.550781 34.421875 -16.6875 C 33.441406 -15.1875 32.472656 -13.65625 31.515625 -12.09375 C 30.566406 -10.539062 29.601562 -9.019531 28.625 -7.53125 C 27.070312 -5.21875 25.054688 -3.253906 22.578125 -1.640625 C 20.210938 -0.0859375 17.734375 0.570312 15.140625 0.34375 C 12.546875 0.113281 10.207031 -0.773438 8.125 -2.328125 C 6.050781 -3.890625 4.640625 -5.878906 3.890625 -8.296875 C 3.484375 -9.453125 3.148438 -10.617188 2.890625 -11.796875 C 2.640625 -12.984375 2.515625 -14.210938 2.515625 -15.484375 Z M 29.75 -37.359375 C 29.863281 -36.898438 29.945312 -36.46875 30 -36.0625 C 30.0625 -35.65625 30.125 -35.253906 30.1875 -34.859375 C 30.46875 -33.640625 30.867188 -32.5 31.390625 -31.4375 C 31.910156 -30.375 32.601562 -29.378906 33.46875 -28.453125 C 34.21875 -27.703125 34.878906 -27.757812 35.453125 -28.625 C 35.972656 -29.4375 36.492188 -30.257812 37.015625 -31.09375 C 37.535156 -31.925781 38.023438 -32.75 38.484375 -33.5625 C 39.578125 -35.40625 40.613281 -37.257812 41.59375 -39.125 C 42.570312 -41 43.671875 -42.832031 44.890625 -44.625 C 45.171875 -45.144531 45.46875 -45.648438 45.78125 -46.140625 C 46.101562 -46.628906 46.410156 -47.132812 46.703125 -47.65625 C 46.816406 -47.769531 46.859375 -47.882812 46.828125 -48 C 46.796875 -48.113281 46.78125 -48.226562 46.78125 -48.34375 C 46.78125 -48.457031 46.664062 -48.554688 46.4375 -48.640625 C 46.207031 -48.734375 45.976562 -48.75 45.75 -48.6875 C 44.3125 -48.226562 42.851562 -47.722656 41.375 -47.171875 C 39.90625 -46.628906 38.484375 -45.984375 37.109375 -45.234375 C 35.835938 -44.597656 34.664062 -43.816406 33.59375 -42.890625 C 32.53125 -41.972656 31.59375 -40.910156 30.78125 -39.703125 C 30.550781 -39.347656 30.363281 -38.953125 30.21875 -38.515625 C 30.082031 -38.085938 29.925781 -37.703125 29.75 -37.359375 Z M 29.75 -37.359375 "/></g></g></g><g fill="#0e9f6e" fill-opacity="1"><g transform="translate(406.545095, 302.62381)"><g><path d="M 59.0625 -62.53125 C 60.625 -62.644531 62.253906 -62.441406 63.953125 -61.921875 C 65.648438 -61.398438 67.28125 -60.566406 68.84375 -59.421875 C 69.25 -59.128906 69.640625 -58.796875 70.015625 -58.421875 C 70.390625 -58.046875 70.75 -57.65625 71.09375 -57.25 C 72.238281 -55.925781 72.582031 -54.367188 72.125 -52.578125 C 71.894531 -51.546875 71.257812 -50.972656 70.21875 -50.859375 C 69.1875 -50.679688 68.378906 -50.9375 67.796875 -51.625 C 67.453125 -52.144531 67.195312 -52.722656 67.03125 -53.359375 C 66.789062 -54.109375 66.300781 -54.710938 65.5625 -55.171875 C 63.769531 -56.441406 61.835938 -57.109375 59.765625 -57.171875 C 57.222656 -57.285156 54.800781 -56.992188 52.5 -56.296875 C 48.8125 -55.316406 45.28125 -53.929688 41.90625 -52.140625 C 38.53125 -50.359375 35.285156 -48.316406 32.171875 -46.015625 C 29.921875 -44.398438 27.816406 -42.597656 25.859375 -40.609375 C 23.898438 -38.617188 22 -36.613281 20.15625 -34.59375 C 19.226562 -33.664062 18.347656 -32.695312 17.515625 -31.6875 C 16.679688 -30.6875 15.859375 -29.695312 15.046875 -28.71875 C 14.003906 -27.5625 13.035156 -26.332031 12.140625 -25.03125 C 11.253906 -23.738281 10.40625 -22.429688 9.59375 -21.109375 C 8.84375 -19.890625 8.207031 -18.617188 7.6875 -17.296875 C 7.175781 -15.972656 6.75 -14.617188 6.40625 -13.234375 C 6.113281 -12.023438 6.171875 -10.867188 6.578125 -9.765625 C 7.378906 -7.691406 8.789062 -6.539062 10.8125 -6.3125 C 12.425781 -6.082031 13.984375 -6.050781 15.484375 -6.21875 C 16.984375 -6.394531 18.453125 -6.890625 19.890625 -7.703125 C 20.640625 -8.160156 21.390625 -8.578125 22.140625 -8.953125 C 22.890625 -9.328125 23.609375 -9.742188 24.296875 -10.203125 C 27.128906 -12.160156 29.796875 -14.289062 32.296875 -16.59375 C 34.804688 -18.90625 37.097656 -21.445312 39.171875 -24.21875 C 40.734375 -26.238281 42.25 -28.269531 43.71875 -30.3125 C 45.1875 -32.363281 46.640625 -34.425781 48.078125 -36.5 C 48.773438 -37.476562 49.5 -38.367188 50.25 -39.171875 C 50.769531 -39.753906 51.53125 -40.03125 52.53125 -40 C 53.539062 -39.96875 54.25 -39.375 54.65625 -38.21875 C 54.832031 -37.757812 54.832031 -37.269531 54.65625 -36.75 C 54.601562 -36.46875 54.488281 -36.179688 54.3125 -35.890625 C 54.132812 -35.597656 53.960938 -35.3125 53.796875 -35.03125 C 53.273438 -34.28125 52.738281 -33.554688 52.1875 -32.859375 C 51.644531 -32.171875 51.113281 -31.421875 50.59375 -30.609375 C 49.78125 -29.347656 48.957031 -28.050781 48.125 -26.71875 C 47.289062 -25.394531 46.46875 -24.070312 45.65625 -22.75 C 44.164062 -20.269531 42.640625 -17.789062 41.078125 -15.3125 C 39.523438 -12.832031 38 -10.351562 36.5 -7.875 C 36.15625 -7.175781 36.269531 -6.65625 36.84375 -6.3125 C 37.019531 -6.257812 37.191406 -6.1875 37.359375 -6.09375 C 37.535156 -6.007812 37.707031 -5.910156 37.875 -5.796875 C 37.988281 -5.734375 38.085938 -5.660156 38.171875 -5.578125 C 38.265625 -5.492188 38.34375 -5.394531 38.40625 -5.28125 C 38.6875 -4.875 38.898438 -4.46875 39.046875 -4.0625 C 39.191406 -3.65625 39.175781 -3.222656 39 -2.765625 C 38.65625 -1.785156 37.992188 -1.207031 37.015625 -1.03125 C 36.609375 -0.976562 36.175781 -0.953125 35.71875 -0.953125 C 35.257812 -0.953125 34.796875 -0.953125 34.328125 -0.953125 C 32.546875 -0.953125 31.164062 -0.171875 30.1875 1.390625 C 28.226562 4.265625 26.222656 7.113281 24.171875 9.9375 C 22.128906 12.769531 19.925781 15.484375 17.5625 18.078125 C 16.0625 19.742188 14.472656 21.34375 12.796875 22.875 C 11.128906 24.40625 9.375 25.832031 7.53125 27.15625 C 6.664062 27.789062 5.753906 28.296875 4.796875 28.671875 C 3.847656 29.046875 2.851562 29.347656 1.8125 29.578125 C 0.375 29.921875 -1.125 29.71875 -2.6875 28.96875 C -4.414062 27.988281 -5.28125 26.488281 -5.28125 24.46875 C -5.164062 22.164062 -4.613281 20.0625 -3.625 18.15625 C -3.164062 17.351562 -2.660156 16.53125 -2.109375 15.6875 C -1.566406 14.851562 -1.007812 14.0625 -0.4375 13.3125 C 1.351562 11.125 3.285156 9.117188 5.359375 7.296875 C 7.429688 5.484375 9.625 3.769531 11.9375 2.15625 C 12.394531 1.875 12.828125 1.585938 13.234375 1.296875 C 13.640625 1.003906 14.039062 0.6875 14.4375 0.34375 C 14.5 0.289062 14.515625 0.191406 14.484375 0.046875 C 14.453125 -0.0976562 14.4375 -0.226562 14.4375 -0.34375 C 14.4375 -0.457031 14.351562 -0.515625 14.1875 -0.515625 C 13.601562 -0.628906 13.023438 -0.710938 12.453125 -0.765625 C 11.878906 -0.828125 11.300781 -0.890625 10.71875 -0.953125 C 8.53125 -1.179688 6.628906 -1.898438 5.015625 -3.109375 C 3.398438 -4.316406 2.242188 -5.859375 1.546875 -7.734375 C 0.859375 -9.609375 0.71875 -11.644531 1.125 -13.84375 C 1.53125 -15.914062 2.132812 -17.898438 2.9375 -19.796875 C 3.75 -21.703125 4.726562 -23.519531 5.875 -25.25 C 6.851562 -26.75 7.890625 -28.234375 8.984375 -29.703125 C 10.085938 -31.171875 11.242188 -32.570312 12.453125 -33.90625 C 13.835938 -35.457031 15.222656 -37.007812 16.609375 -38.5625 C 17.992188 -40.125 19.40625 -41.625 20.84375 -43.0625 C 22.164062 -44.445312 23.53125 -45.757812 24.9375 -47 C 26.351562 -48.238281 27.785156 -49.40625 29.234375 -50.5 C 31.253906 -52 33.316406 -53.367188 35.421875 -54.609375 C 37.523438 -55.847656 39.671875 -57.019531 41.859375 -58.125 C 43.523438 -58.925781 45.207031 -59.585938 46.90625 -60.109375 C 48.613281 -60.628906 50.363281 -61.144531 52.15625 -61.65625 C 53.132812 -61.945312 54.171875 -62.148438 55.265625 -62.265625 C 56.359375 -62.378906 57.625 -62.46875 59.0625 -62.53125 Z M 1.125 24.21875 C 1.46875 24.101562 1.8125 24.015625 2.15625 23.953125 C 2.507812 23.898438 2.800781 23.785156 3.03125 23.609375 C 3.664062 23.265625 4.285156 22.890625 4.890625 22.484375 C 5.492188 22.078125 6.054688 21.644531 6.578125 21.1875 C 7.722656 20.207031 8.875 19.179688 10.03125 18.109375 C 11.1875 17.046875 12.28125 15.9375 13.3125 14.78125 C 14.644531 13.226562 15.941406 11.628906 17.203125 9.984375 C 18.472656 8.347656 19.742188 6.722656 21.015625 5.109375 C 21.242188 4.867188 21.414062 4.59375 21.53125 4.28125 C 21.644531 3.96875 21.757812 3.691406 21.875 3.453125 C 21.988281 3.335938 21.960938 3.222656 21.796875 3.109375 C 21.679688 2.992188 21.566406 2.9375 21.453125 2.9375 C 21.097656 2.9375 20.863281 2.992188 20.75 3.109375 C 18.21875 4.378906 15.796875 5.847656 13.484375 7.515625 C 11.179688 9.191406 8.992188 11.039062 6.921875 13.0625 C 6.171875 13.8125 5.429688 14.617188 4.703125 15.484375 C 3.984375 16.347656 3.3125 17.210938 2.6875 18.078125 C 2.28125 18.648438 1.898438 19.253906 1.546875 19.890625 C 1.203125 20.523438 0.890625 21.160156 0.609375 21.796875 C 0.546875 22.023438 0.5 22.269531 0.46875 22.53125 C 0.445312 22.789062 0.4375 23.035156 0.4375 23.265625 C 0.488281 23.441406 0.585938 23.597656 0.734375 23.734375 C 0.878906 23.878906 1.007812 24.039062 1.125 24.21875 Z M 1.125 24.21875 "/></g></g></g><g fill="#0e9f6e" fill-opacity="1"><g transform="translate(455.489848, 302.62381)"><g><path d="M 50.078125 -7.171875 C 50.015625 -8.847656 50.097656 -10.566406 50.328125 -12.328125 C 50.566406 -14.085938 50.800781 -15.859375 51.03125 -17.640625 C 51.488281 -20.984375 51.960938 -24.3125 52.453125 -27.625 C 52.941406 -30.945312 53.445312 -34.25 53.96875 -37.53125 C 54.082031 -38.164062 54.195312 -38.753906 54.3125 -39.296875 C 54.425781 -39.847656 54.515625 -40.414062 54.578125 -41 C 54.628906 -41.28125 54.640625 -41.550781 54.609375 -41.8125 C 54.585938 -42.070312 54.546875 -42.316406 54.484375 -42.546875 C 54.484375 -42.660156 54.394531 -42.71875 54.21875 -42.71875 C 54.101562 -42.832031 53.988281 -42.832031 53.875 -42.71875 C 53.707031 -42.550781 53.519531 -42.378906 53.3125 -42.203125 C 53.113281 -42.023438 52.957031 -41.820312 52.84375 -41.59375 C 52.207031 -40.675781 51.570312 -39.710938 50.9375 -38.703125 C 50.300781 -37.691406 49.695312 -36.695312 49.125 -35.71875 C 47.332031 -32.550781 45.457031 -29.453125 43.5 -26.421875 C 41.539062 -23.390625 39.523438 -20.378906 37.453125 -17.390625 C 36.117188 -15.484375 34.6875 -13.632812 33.15625 -11.84375 C 31.632812 -10.0625 30.125 -8.304688 28.625 -6.578125 C 27.875 -5.765625 27.082031 -5 26.25 -4.28125 C 25.414062 -3.5625 24.566406 -2.851562 23.703125 -2.15625 C 21.390625 -0.375 18.90625 0.5 16.25 0.46875 C 13.601562 0.445312 11.210938 -0.195312 9.078125 -1.46875 C 7.296875 -2.5625 5.828125 -3.898438 4.671875 -5.484375 C 3.515625 -7.078125 2.617188 -8.851562 1.984375 -10.8125 C 1.585938 -12.019531 1.316406 -13.269531 1.171875 -14.5625 C 1.023438 -15.863281 1.007812 -17.148438 1.125 -18.421875 C 1.414062 -21.128906 1.890625 -23.804688 2.546875 -26.453125 C 3.210938 -29.109375 4.125 -31.675781 5.28125 -34.15625 C 5.675781 -35.082031 6.132812 -35.945312 6.65625 -36.75 C 7.175781 -37.5625 7.753906 -38.34375 8.390625 -39.09375 C 8.679688 -39.4375 8.984375 -39.75 9.296875 -40.03125 C 9.609375 -40.320312 9.96875 -40.585938 10.375 -40.828125 C 10.832031 -41.171875 11.363281 -41.285156 11.96875 -41.171875 C 12.582031 -41.054688 13.085938 -40.765625 13.484375 -40.296875 C 13.835938 -39.953125 14.054688 -39.488281 14.140625 -38.90625 C 14.222656 -38.332031 14.125 -37.847656 13.84375 -37.453125 C 13.601562 -37.046875 13.285156 -36.640625 12.890625 -36.234375 C 11.960938 -35.203125 11.179688 -34.09375 10.546875 -32.90625 C 9.910156 -31.726562 9.363281 -30.472656 8.90625 -29.140625 C 7.632812 -25.679688 6.828125 -22.050781 6.484375 -18.25 C 6.078125 -14.789062 6.882812 -11.59375 8.90625 -8.65625 C 9.601562 -7.726562 10.394531 -6.960938 11.28125 -6.359375 C 12.175781 -5.753906 13.171875 -5.304688 14.265625 -5.015625 C 15.359375 -4.785156 16.394531 -4.785156 17.375 -5.015625 C 18.363281 -5.242188 19.289062 -5.648438 20.15625 -6.234375 C 21.070312 -6.859375 21.945312 -7.53125 22.78125 -8.25 C 23.625 -8.976562 24.390625 -9.773438 25.078125 -10.640625 C 26.921875 -12.710938 28.722656 -14.828125 30.484375 -16.984375 C 32.242188 -19.148438 33.875 -21.414062 35.375 -23.78125 C 36.695312 -25.851562 38.019531 -27.910156 39.34375 -29.953125 C 40.675781 -32.003906 41.976562 -34.097656 43.25 -36.234375 C 44.6875 -38.597656 46.15625 -40.960938 47.65625 -43.328125 C 49.15625 -45.691406 50.679688 -48.023438 52.234375 -50.328125 C 52.867188 -51.304688 53.53125 -52.257812 54.21875 -53.1875 C 54.914062 -54.113281 55.609375 -55.035156 56.296875 -55.953125 C 56.585938 -56.359375 56.890625 -56.71875 57.203125 -57.03125 C 57.523438 -57.351562 57.859375 -57.65625 58.203125 -57.9375 C 58.609375 -58.34375 59.210938 -58.546875 60.015625 -58.546875 C 60.765625 -58.546875 61.410156 -58.269531 61.953125 -57.71875 C 62.503906 -57.175781 62.722656 -56.5625 62.609375 -55.875 C 62.609375 -55.632812 62.59375 -55.425781 62.5625 -55.25 C 62.539062 -55.082031 62.5 -54.882812 62.4375 -54.65625 C 61.863281 -52.175781 61.375 -49.710938 60.96875 -47.265625 C 60.5625 -44.816406 60.160156 -42.320312 59.765625 -39.78125 C 59.179688 -36.03125 58.601562 -32.265625 58.03125 -28.484375 C 57.457031 -24.710938 56.878906 -20.953125 56.296875 -17.203125 C 56.128906 -15.992188 55.988281 -14.769531 55.875 -13.53125 C 55.757812 -12.289062 55.640625 -11.066406 55.515625 -9.859375 C 55.460938 -9.453125 55.460938 -9.050781 55.515625 -8.65625 C 55.515625 -8.476562 55.632812 -8.273438 55.875 -8.046875 C 56.15625 -7.816406 56.5 -7.898438 56.90625 -8.296875 C 57.019531 -8.410156 57.148438 -8.539062 57.296875 -8.6875 C 57.441406 -8.832031 57.570312 -8.992188 57.6875 -9.171875 C 58.488281 -10.265625 59.289062 -11.359375 60.09375 -12.453125 C 60.90625 -13.546875 61.6875 -14.640625 62.4375 -15.734375 C 64.570312 -19.140625 66.632812 -22.53125 68.625 -25.90625 C 70.613281 -29.28125 72.53125 -32.722656 74.375 -36.234375 C 74.550781 -36.578125 74.738281 -36.90625 74.9375 -37.21875 C 75.132812 -37.539062 75.320312 -37.875 75.5 -38.21875 C 76.476562 -40.007812 77.441406 -41.785156 78.390625 -43.546875 C 79.347656 -45.304688 80.285156 -47.078125 81.203125 -48.859375 C 82.066406 -50.585938 82.988281 -52.300781 83.96875 -54 C 84.957031 -55.707031 85.910156 -57.394531 86.828125 -59.0625 C 87.867188 -60.96875 89.140625 -62.757812 90.640625 -64.4375 C 91.210938 -65.0625 91.816406 -65.648438 92.453125 -66.203125 C 93.085938 -66.753906 93.78125 -67.226562 94.53125 -67.625 C 94.988281 -67.863281 95.59375 -67.984375 96.34375 -67.984375 C 97.269531 -67.984375 97.960938 -67.460938 98.421875 -66.421875 C 98.828125 -65.554688 98.679688 -64.71875 97.984375 -63.90625 C 97.929688 -63.789062 97.816406 -63.660156 97.640625 -63.515625 C 97.460938 -63.378906 97.316406 -63.253906 97.203125 -63.140625 C 95.992188 -62.328125 94.941406 -61.359375 94.046875 -60.234375 C 93.160156 -59.109375 92.367188 -57.941406 91.671875 -56.734375 C 90.398438 -54.597656 89.171875 -52.445312 87.984375 -50.28125 C 86.804688 -48.125 85.671875 -45.953125 84.578125 -43.765625 C 84.296875 -43.128906 83.976562 -42.492188 83.625 -41.859375 C 83.28125 -41.222656 82.9375 -40.585938 82.59375 -39.953125 C 81.15625 -37.304688 79.6875 -34.65625 78.1875 -32 C 76.6875 -29.34375 75.1875 -26.691406 73.6875 -24.046875 C 72.070312 -21.222656 70.398438 -18.394531 68.671875 -15.5625 C 66.941406 -12.738281 65.066406 -10 63.046875 -7.34375 C 62.179688 -6.25 61.285156 -5.171875 60.359375 -4.109375 C 59.441406 -3.046875 58.4375 -2.050781 57.34375 -1.125 C 56.9375 -0.71875 56.488281 -0.351562 56 -0.03125 C 55.507812 0.28125 54.976562 0.550781 54.40625 0.78125 C 53.476562 1.1875 52.609375 1.1875 51.796875 0.78125 C 50.992188 0.375 50.476562 -0.347656 50.25 -1.390625 C 50.1875 -1.671875 50.140625 -1.984375 50.109375 -2.328125 C 50.085938 -2.679688 50.078125 -3 50.078125 -3.28125 C 50.015625 -3.914062 50 -4.535156 50.03125 -5.140625 C 50.0625 -5.742188 50.078125 -6.421875 50.078125 -7.171875 Z M 50.078125 -7.171875 "/></g></g></g><g fill="#0e9f6e" fill-opacity="1"><g transform="translate(528.128645, 302.62381)"><g><path d="M 86.484375 -48.515625 L 86.390625 -48.609375 C 85.929688 -48.203125 85.425781 -47.8125 84.875 -47.4375 C 84.332031 -47.0625 83.832031 -46.644531 83.375 -46.1875 C 81.925781 -44.800781 80.523438 -43.375 79.171875 -41.90625 C 77.816406 -40.4375 76.535156 -38.894531 75.328125 -37.28125 C 72.503906 -33.695312 69.664062 -30.085938 66.8125 -26.453125 C 63.957031 -22.828125 61.085938 -19.226562 58.203125 -15.65625 C 56.929688 -14.039062 55.617188 -12.4375 54.265625 -10.84375 C 52.910156 -9.257812 51.570312 -7.691406 50.25 -6.140625 C 49.664062 -5.453125 49.03125 -4.800781 48.34375 -4.1875 C 47.65625 -3.582031 46.992188 -2.960938 46.359375 -2.328125 C 45.546875 -1.523438 44.476562 -1.125 43.15625 -1.125 C 42.695312 -1.175781 42.222656 -1.375 41.734375 -1.71875 C 41.242188 -2.070312 40.941406 -2.476562 40.828125 -2.9375 C 40.765625 -3.394531 40.6875 -3.835938 40.59375 -4.265625 C 40.507812 -4.703125 40.5 -5.15625 40.5625 -5.625 C 40.675781 -6.375 40.773438 -7.132812 40.859375 -7.90625 C 40.953125 -8.6875 41.113281 -9.453125 41.34375 -10.203125 C 41.914062 -12.222656 42.519531 -14.253906 43.15625 -16.296875 C 43.789062 -18.347656 44.507812 -20.351562 45.3125 -22.3125 C 46.007812 -23.988281 46.660156 -25.691406 47.265625 -27.421875 C 47.867188 -29.148438 48.546875 -30.820312 49.296875 -32.4375 C 50.453125 -35.3125 51.648438 -38.175781 52.890625 -41.03125 C 54.128906 -43.882812 55.378906 -46.726562 56.640625 -49.5625 C 56.753906 -49.90625 56.882812 -50.265625 57.03125 -50.640625 C 57.175781 -51.015625 57.304688 -51.375 57.421875 -51.71875 C 57.421875 -51.894531 57.335938 -52.007812 57.171875 -52.0625 C 57.109375 -52.0625 57.046875 -52.078125 56.984375 -52.109375 C 56.929688 -52.140625 56.875 -52.125 56.8125 -52.0625 C 56.695312 -51.945312 56.550781 -51.832031 56.375 -51.71875 C 56.207031 -51.601562 56.066406 -51.488281 55.953125 -51.375 C 55.429688 -50.675781 54.910156 -49.992188 54.390625 -49.328125 C 53.878906 -48.671875 53.390625 -48 52.921875 -47.3125 C 51.660156 -45.46875 50.476562 -43.550781 49.375 -41.5625 C 48.28125 -39.570312 47.242188 -37.566406 46.265625 -35.546875 C 44.535156 -31.972656 42.675781 -28.484375 40.6875 -25.078125 C 38.695312 -21.679688 36.578125 -18.335938 34.328125 -15.046875 C 33.234375 -13.429688 32.050781 -11.84375 30.78125 -10.28125 C 29.519531 -8.726562 28.140625 -7.257812 26.640625 -5.875 C 25.597656 -4.84375 24.5 -3.9375 23.34375 -3.15625 C 22.195312 -2.375 20.957031 -1.664062 19.625 -1.03125 C 17.664062 -0.0507812 15.734375 0.332031 13.828125 0.125 C 11.929688 -0.0703125 10.0625 -0.804688 8.21875 -2.078125 C 6.257812 -3.460938 4.816406 -5.160156 3.890625 -7.171875 C 2.972656 -9.191406 2.394531 -11.359375 2.15625 -13.671875 C 1.988281 -16.085938 2.222656 -18.535156 2.859375 -21.015625 C 3.492188 -23.722656 4.382812 -26.285156 5.53125 -28.703125 C 6.6875 -31.128906 8.21875 -33.351562 10.125 -35.375 C 11.625 -36.988281 13.238281 -38.398438 14.96875 -39.609375 C 16.695312 -40.816406 18.566406 -41.796875 20.578125 -42.546875 C 21.671875 -42.953125 22.59375 -42.664062 23.34375 -41.6875 C 23.8125 -41.113281 24 -40.4375 23.90625 -39.65625 C 23.820312 -38.875 23.460938 -38.3125 22.828125 -37.96875 C 22.546875 -37.738281 22.21875 -37.550781 21.84375 -37.40625 C 21.46875 -37.257812 21.101562 -37.097656 20.75 -36.921875 C 17.875 -35.429688 15.46875 -33.515625 13.53125 -31.171875 C 11.601562 -28.835938 10.09375 -26.144531 9 -23.09375 C 8.070312 -20.550781 7.582031 -18.015625 7.53125 -15.484375 C 7.53125 -14.785156 7.554688 -14.078125 7.609375 -13.359375 C 7.671875 -12.640625 7.785156 -11.9375 7.953125 -11.25 C 8.535156 -9.394531 9.515625 -7.894531 10.890625 -6.75 C 12.972656 -5.019531 15.253906 -4.785156 17.734375 -6.046875 C 20.609375 -7.492188 23.113281 -9.515625 25.25 -12.109375 C 27.5 -14.703125 29.601562 -17.46875 31.5625 -20.40625 C 33.582031 -23.46875 35.457031 -26.582031 37.1875 -29.75 C 38.914062 -32.914062 40.585938 -36.113281 42.203125 -39.34375 C 44.046875 -43.09375 46.179688 -46.785156 48.609375 -50.421875 C 49.242188 -51.398438 49.929688 -52.347656 50.671875 -53.265625 C 51.421875 -54.191406 52.171875 -55.085938 52.921875 -55.953125 C 54.421875 -57.796875 56.269531 -59.207031 58.46875 -60.1875 C 60.3125 -60.9375 62.066406 -61.140625 63.734375 -60.796875 C 64.546875 -60.628906 65.179688 -60.226562 65.640625 -59.59375 C 66.097656 -58.957031 66.242188 -58.320312 66.078125 -57.6875 C 66.078125 -57.507812 66.046875 -57.332031 65.984375 -57.15625 C 65.929688 -56.988281 65.847656 -56.816406 65.734375 -56.640625 C 64.117188 -52.953125 62.488281 -49.289062 60.84375 -45.65625 C 59.195312 -42.03125 57.566406 -38.375 55.953125 -34.6875 C 55.148438 -32.832031 54.375 -30.96875 53.625 -29.09375 C 52.875 -27.226562 52.148438 -25.375 51.453125 -23.53125 C 50.878906 -22.03125 50.316406 -20.5 49.765625 -18.9375 C 49.222656 -17.382812 48.691406 -15.859375 48.171875 -14.359375 C 48.109375 -14.128906 48.0625 -13.894531 48.03125 -13.65625 C 48.007812 -13.425781 47.96875 -13.171875 47.90625 -12.890625 C 47.90625 -12.773438 47.960938 -12.660156 48.078125 -12.546875 C 48.140625 -12.546875 48.195312 -12.546875 48.25 -12.546875 C 48.3125 -12.546875 48.375 -12.546875 48.4375 -12.546875 C 48.664062 -12.710938 48.878906 -12.867188 49.078125 -13.015625 C 49.273438 -13.160156 49.460938 -13.316406 49.640625 -13.484375 C 51.429688 -15.734375 53.203125 -17.96875 54.953125 -20.1875 C 56.710938 -22.414062 58.457031 -24.648438 60.1875 -26.890625 C 62.207031 -29.429688 64.226562 -31.984375 66.25 -34.546875 C 68.269531 -37.117188 70.285156 -39.644531 72.296875 -42.125 C 73.796875 -43.96875 75.351562 -45.695312 76.96875 -47.3125 C 80.65625 -50.882812 84.40625 -54.457031 88.21875 -58.03125 C 88.90625 -58.664062 89.664062 -59.253906 90.5 -59.796875 C 91.34375 -60.347656 92.140625 -60.910156 92.890625 -61.484375 C 93.460938 -61.773438 94.179688 -62.066406 95.046875 -62.359375 C 95.910156 -62.585938 96.804688 -62.53125 97.734375 -62.1875 C 98.359375 -61.894531 98.859375 -61.390625 99.234375 -60.671875 C 99.609375 -59.953125 99.566406 -59.160156 99.109375 -58.296875 C 98.535156 -57.304688 97.988281 -56.289062 97.46875 -55.25 C 96.945312 -54.21875 96.367188 -53.210938 95.734375 -52.234375 C 94.640625 -50.453125 93.515625 -48.632812 92.359375 -46.78125 C 91.210938 -44.9375 90.03125 -43.148438 88.8125 -41.421875 C 86.851562 -38.597656 84.992188 -35.710938 83.234375 -32.765625 C 81.484375 -29.828125 79.800781 -26.832031 78.1875 -23.78125 C 77.257812 -22 76.390625 -20.195312 75.578125 -18.375 C 74.773438 -16.5625 74.113281 -14.675781 73.59375 -12.71875 C 73.070312 -11.039062 72.875 -9.25 73 -7.34375 C 73.050781 -6.476562 73.378906 -5.816406 73.984375 -5.359375 C 74.585938 -4.898438 75.320312 -4.726562 76.1875 -4.84375 C 76.820312 -4.957031 77.398438 -5.144531 77.921875 -5.40625 C 78.441406 -5.664062 78.929688 -5.941406 79.390625 -6.234375 C 80.429688 -6.921875 81.425781 -7.664062 82.375 -8.46875 C 83.320312 -9.28125 84.171875 -10.144531 84.921875 -11.0625 C 85.273438 -11.46875 85.625 -11.859375 85.96875 -12.234375 C 86.3125 -12.609375 86.65625 -13 87 -13.40625 C 87.863281 -14.15625 88.816406 -14.210938 89.859375 -13.578125 C 90.492188 -13.234375 90.894531 -12.726562 91.0625 -12.0625 C 91.238281 -11.394531 91.179688 -10.773438 90.890625 -10.203125 C 90.835938 -10.085938 90.78125 -9.972656 90.71875 -9.859375 C 90.664062 -9.742188 90.609375 -9.628906 90.546875 -9.515625 C 88.015625 -6.109375 84.957031 -3.335938 81.375 -1.203125 C 79.363281 0.00390625 77.144531 0.578125 74.71875 0.515625 C 72.875 0.398438 71.289062 -0.332031 69.96875 -1.6875 C 68.644531 -3.039062 67.894531 -4.378906 67.71875 -5.703125 C 67.65625 -6.335938 67.609375 -6.941406 67.578125 -7.515625 C 67.554688 -8.097656 67.570312 -8.675781 67.625 -9.25 C 67.738281 -11.445312 68.128906 -13.535156 68.796875 -15.515625 C 69.460938 -17.503906 70.226562 -19.484375 71.09375 -21.453125 C 72.414062 -24.328125 73.851562 -27.160156 75.40625 -29.953125 C 76.96875 -32.753906 78.613281 -35.484375 80.34375 -38.140625 C 81.03125 -39.296875 81.765625 -40.4375 82.546875 -41.5625 C 83.328125 -42.6875 84.09375 -43.796875 84.84375 -44.890625 C 85.363281 -45.753906 85.851562 -46.644531 86.3125 -47.5625 C 86.425781 -47.738281 86.46875 -47.925781 86.4375 -48.125 C 86.40625 -48.332031 86.390625 -48.519531 86.390625 -48.6875 C 86.390625 -48.6875 86.40625 -48.65625 86.4375 -48.59375 C 86.46875 -48.539062 86.484375 -48.515625 86.484375 -48.515625 Z M 86.484375 -48.515625 "/></g></g></g><g fill="#0e9f6e" fill-opacity="1"><g transform="translate(616.592276, 302.62381)"><g><path d="M 45.140625 -42.03125 C 42.835938 -41.96875 40.691406 -42.210938 38.703125 -42.765625 C 36.710938 -43.316406 34.796875 -44.140625 32.953125 -45.234375 C 32.722656 -45.398438 32.460938 -45.570312 32.171875 -45.75 C 31.878906 -45.925781 31.59375 -46.097656 31.3125 -46.265625 C 30.382812 -46.847656 29.691406 -47.222656 29.234375 -47.390625 C 28.773438 -47.566406 28.359375 -47.492188 27.984375 -47.171875 C 27.609375 -46.859375 27.046875 -46.238281 26.296875 -45.3125 C 25.316406 -44.164062 24.507812 -42.84375 23.875 -41.34375 C 23.519531 -40.300781 23.457031 -39.617188 23.6875 -39.296875 C 23.925781 -38.984375 24.59375 -38.914062 25.6875 -39.09375 C 29.664062 -39.78125 33.410156 -39.144531 36.921875 -37.1875 C 37.210938 -36.957031 37.515625 -36.738281 37.828125 -36.53125 C 38.148438 -36.332031 38.457031 -36.085938 38.75 -35.796875 C 39.84375 -34.816406 40.375 -33.503906 40.34375 -31.859375 C 40.3125 -30.222656 39.894531 -28.941406 39.09375 -28.015625 C 38 -26.578125 36.703125 -25.625 35.203125 -25.15625 C 33.703125 -24.695312 32.113281 -24.46875 30.4375 -24.46875 C 29.519531 -24.53125 28.628906 -24.660156 27.765625 -24.859375 C 26.898438 -25.066406 26.035156 -25.3125 25.171875 -25.59375 C 24.242188 -25.945312 23.390625 -26.410156 22.609375 -26.984375 C 21.835938 -27.554688 21.132812 -28.21875 20.5 -28.96875 C 20.269531 -29.257812 20.066406 -29.519531 19.890625 -29.75 C 19.710938 -29.976562 19.507812 -30.207031 19.28125 -30.4375 C 19 -30.789062 18.625 -30.847656 18.15625 -30.609375 C 17.351562 -30.148438 16.546875 -29.644531 15.734375 -29.09375 C 14.929688 -28.550781 14.210938 -27.875 13.578125 -27.0625 C 12.648438 -25.96875 11.722656 -24.828125 10.796875 -23.640625 C 9.878906 -22.460938 8.960938 -21.300781 8.046875 -20.15625 C 7.640625 -19.570312 7.273438 -18.960938 6.953125 -18.328125 C 6.640625 -17.703125 6.335938 -17.039062 6.046875 -16.34375 C 5.472656 -14.90625 5.257812 -13.460938 5.40625 -12.015625 C 5.550781 -10.578125 5.941406 -9.140625 6.578125 -7.703125 C 7.785156 -4.984375 9.890625 -3.484375 12.890625 -3.203125 C 16.347656 -2.742188 19.601562 -3.316406 22.65625 -4.921875 C 24.5 -5.960938 26.195312 -7.144531 27.75 -8.46875 C 29.3125 -9.800781 30.671875 -11.359375 31.828125 -13.140625 C 32.054688 -13.492188 32.285156 -13.785156 32.515625 -14.015625 C 32.972656 -14.585938 33.519531 -14.929688 34.15625 -15.046875 C 34.789062 -15.160156 35.398438 -15.015625 35.984375 -14.609375 C 36.554688 -14.328125 36.925781 -13.835938 37.09375 -13.140625 C 37.269531 -12.453125 37.1875 -11.820312 36.84375 -11.25 C 36.4375 -10.550781 35.988281 -9.84375 35.5 -9.125 C 35.007812 -8.40625 34.476562 -7.726562 33.90625 -7.09375 C 32.925781 -5.9375 31.84375 -4.851562 30.65625 -3.84375 C 29.476562 -2.832031 28.195312 -1.953125 26.8125 -1.203125 C 26.632812 -1.148438 26.457031 -1.078125 26.28125 -0.984375 C 26.113281 -0.898438 25.941406 -0.800781 25.765625 -0.6875 C 23.921875 0.570312 21.960938 1.390625 19.890625 1.765625 C 17.816406 2.140625 15.679688 2.300781 13.484375 2.25 C 10.546875 2.132812 7.992188 1.300781 5.828125 -0.25 C 3.671875 -1.8125 2.070312 -4.09375 1.03125 -7.09375 C 0.226562 -9.34375 -0.0859375 -11.578125 0.078125 -13.796875 C 0.253906 -16.015625 0.863281 -18.191406 1.90625 -20.328125 C 2.363281 -21.242188 2.96875 -22.222656 3.71875 -23.265625 C 4.238281 -24.015625 4.785156 -24.734375 5.359375 -25.421875 C 5.941406 -26.117188 6.488281 -26.84375 7 -27.59375 C 8.15625 -29.09375 9.410156 -30.488281 10.765625 -31.78125 C 12.117188 -33.082031 13.601562 -34.222656 15.21875 -35.203125 C 15.851562 -35.546875 16.398438 -35.921875 16.859375 -36.328125 C 17.210938 -36.671875 17.472656 -37.101562 17.640625 -37.625 C 17.753906 -37.851562 17.8125 -38.097656 17.8125 -38.359375 C 17.8125 -38.617188 17.84375 -38.863281 17.90625 -39.09375 C 18.300781 -42.488281 19.597656 -45.546875 21.796875 -48.265625 C 22.140625 -48.660156 22.46875 -49.0625 22.78125 -49.46875 C 23.101562 -49.875 23.4375 -50.28125 23.78125 -50.6875 C 24.125 -51.144531 24.097656 -51.632812 23.703125 -52.15625 C 23.347656 -52.550781 23 -52.9375 22.65625 -53.3125 C 22.3125 -53.6875 21.992188 -54.078125 21.703125 -54.484375 C 21.066406 -55.171875 20.460938 -56.007812 19.890625 -57 C 19.597656 -57.457031 19.539062 -57.988281 19.71875 -58.59375 C 19.894531 -59.195312 20.210938 -59.703125 20.671875 -60.109375 C 21.128906 -60.453125 21.6875 -60.625 22.34375 -60.625 C 23.007812 -60.625 23.546875 -60.421875 23.953125 -60.015625 C 24.242188 -59.785156 24.503906 -59.507812 24.734375 -59.1875 C 24.960938 -58.875 25.191406 -58.578125 25.421875 -58.296875 C 25.773438 -57.890625 26.125 -57.5 26.46875 -57.125 C 26.8125 -56.75 27.15625 -56.359375 27.5 -55.953125 C 28.195312 -55.265625 28.890625 -55.179688 29.578125 -55.703125 C 31.878906 -57.316406 34.269531 -58.582031 36.75 -59.5 C 39.289062 -60.539062 41.882812 -61.316406 44.53125 -61.828125 C 47.1875 -62.347656 49.898438 -62.46875 52.671875 -62.1875 C 53.472656 -62.125 54.234375 -61.988281 54.953125 -61.78125 C 55.679688 -61.582031 56.390625 -61.3125 57.078125 -60.96875 C 58.753906 -60.21875 59.90625 -59.148438 60.53125 -57.765625 C 61.164062 -56.390625 61.253906 -54.773438 60.796875 -52.921875 C 60.335938 -51.023438 59.515625 -49.367188 58.328125 -47.953125 C 57.148438 -46.546875 55.722656 -45.347656 54.046875 -44.359375 C 52.609375 -43.554688 51.140625 -42.9375 49.640625 -42.5 C 48.140625 -42.070312 46.640625 -41.914062 45.140625 -42.03125 Z M 49.734375 -57.078125 C 47.941406 -57.191406 46.207031 -57.003906 44.53125 -56.515625 C 42.863281 -56.023438 41.191406 -55.492188 39.515625 -54.921875 C 38.773438 -54.628906 38.03125 -54.296875 37.28125 -53.921875 C 36.53125 -53.546875 35.75 -53.15625 34.9375 -52.75 C 34.882812 -52.695312 34.796875 -52.640625 34.671875 -52.578125 C 34.554688 -52.523438 34.441406 -52.441406 34.328125 -52.328125 C 34.046875 -52.148438 33.90625 -51.890625 33.90625 -51.546875 C 33.90625 -51.203125 34.019531 -50.941406 34.25 -50.765625 C 38.050781 -47.992188 42.203125 -46.867188 46.703125 -47.390625 C 49.816406 -47.679688 52.351562 -49.066406 54.3125 -51.546875 C 54.601562 -51.890625 54.832031 -52.265625 55 -52.671875 C 55.175781 -53.078125 55.320312 -53.476562 55.4375 -53.875 C 55.894531 -55.09375 55.488281 -55.929688 54.21875 -56.390625 C 53.707031 -56.617188 53.21875 -56.757812 52.75 -56.8125 C 52.238281 -56.875 51.722656 -56.921875 51.203125 -56.953125 C 50.679688 -56.984375 50.191406 -57.023438 49.734375 -57.078125 Z M 28.1875 -34.078125 C 27.789062 -34.015625 27.347656 -33.925781 26.859375 -33.8125 C 26.367188 -33.695312 25.890625 -33.582031 25.421875 -33.46875 C 25.140625 -33.414062 24.96875 -33.203125 24.90625 -32.828125 C 24.851562 -32.453125 24.941406 -32.144531 25.171875 -31.90625 C 25.285156 -31.789062 25.410156 -31.660156 25.546875 -31.515625 C 25.691406 -31.378906 25.851562 -31.253906 26.03125 -31.140625 C 28.457031 -29.804688 30.9375 -29.515625 33.46875 -30.265625 C 33.8125 -30.441406 34.128906 -30.675781 34.421875 -30.96875 C 34.597656 -31.132812 34.671875 -31.375 34.640625 -31.6875 C 34.609375 -32.007812 34.503906 -32.226562 34.328125 -32.34375 C 34.160156 -32.457031 34.003906 -32.570312 33.859375 -32.6875 C 33.710938 -32.800781 33.554688 -32.914062 33.390625 -33.03125 C 32.640625 -33.4375 31.832031 -33.695312 30.96875 -33.8125 C 30.101562 -33.925781 29.175781 -34.015625 28.1875 -34.078125 Z M 28.1875 -34.078125 "/></g></g></g><g fill="#0e9f6e" fill-opacity="1"><g transform="translate(651.268723, 302.62381)"><g><path d="M 50.078125 -7.171875 C 50.015625 -8.847656 50.097656 -10.566406 50.328125 -12.328125 C 50.566406 -14.085938 50.800781 -15.859375 51.03125 -17.640625 C 51.488281 -20.984375 51.960938 -24.3125 52.453125 -27.625 C 52.941406 -30.945312 53.445312 -34.25 53.96875 -37.53125 C 54.082031 -38.164062 54.195312 -38.753906 54.3125 -39.296875 C 54.425781 -39.847656 54.515625 -40.414062 54.578125 -41 C 54.628906 -41.28125 54.640625 -41.550781 54.609375 -41.8125 C 54.585938 -42.070312 54.546875 -42.316406 54.484375 -42.546875 C 54.484375 -42.660156 54.394531 -42.71875 54.21875 -42.71875 C 54.101562 -42.832031 53.988281 -42.832031 53.875 -42.71875 C 53.707031 -42.550781 53.519531 -42.378906 53.3125 -42.203125 C 53.113281 -42.023438 52.957031 -41.820312 52.84375 -41.59375 C 52.207031 -40.675781 51.570312 -39.710938 50.9375 -38.703125 C 50.300781 -37.691406 49.695312 -36.695312 49.125 -35.71875 C 47.332031 -32.550781 45.457031 -29.453125 43.5 -26.421875 C 41.539062 -23.390625 39.523438 -20.378906 37.453125 -17.390625 C 36.117188 -15.484375 34.6875 -13.632812 33.15625 -11.84375 C 31.632812 -10.0625 30.125 -8.304688 28.625 -6.578125 C 27.875 -5.765625 27.082031 -5 26.25 -4.28125 C 25.414062 -3.5625 24.566406 -2.851562 23.703125 -2.15625 C 21.390625 -0.375 18.90625 0.5 16.25 0.46875 C 13.601562 0.445312 11.210938 -0.195312 9.078125 -1.46875 C 7.296875 -2.5625 5.828125 -3.898438 4.671875 -5.484375 C 3.515625 -7.078125 2.617188 -8.851562 1.984375 -10.8125 C 1.585938 -12.019531 1.316406 -13.269531 1.171875 -14.5625 C 1.023438 -15.863281 1.007812 -17.148438 1.125 -18.421875 C 1.414062 -21.128906 1.890625 -23.804688 2.546875 -26.453125 C 3.210938 -29.109375 4.125 -31.675781 5.28125 -34.15625 C 5.675781 -35.082031 6.132812 -35.945312 6.65625 -36.75 C 7.175781 -37.5625 7.753906 -38.34375 8.390625 -39.09375 C 8.679688 -39.4375 8.984375 -39.75 9.296875 -40.03125 C 9.609375 -40.320312 9.96875 -40.585938 10.375 -40.828125 C 10.832031 -41.171875 11.363281 -41.285156 11.96875 -41.171875 C 12.582031 -41.054688 13.085938 -40.765625 13.484375 -40.296875 C 13.835938 -39.953125 14.054688 -39.488281 14.140625 -38.90625 C 14.222656 -38.332031 14.125 -37.847656 13.84375 -37.453125 C 13.601562 -37.046875 13.285156 -36.640625 12.890625 -36.234375 C 11.960938 -35.203125 11.179688 -34.09375 10.546875 -32.90625 C 9.910156 -31.726562 9.363281 -30.472656 8.90625 -29.140625 C 7.632812 -25.679688 6.828125 -22.050781 6.484375 -18.25 C 6.078125 -14.789062 6.882812 -11.59375 8.90625 -8.65625 C 9.601562 -7.726562 10.394531 -6.960938 11.28125 -6.359375 C 12.175781 -5.753906 13.171875 -5.304688 14.265625 -5.015625 C 15.359375 -4.785156 16.394531 -4.785156 17.375 -5.015625 C 18.363281 -5.242188 19.289062 -5.648438 20.15625 -6.234375 C 21.070312 -6.859375 21.945312 -7.53125 22.78125 -8.25 C 23.625 -8.976562 24.390625 -9.773438 25.078125 -10.640625 C 26.921875 -12.710938 28.722656 -14.828125 30.484375 -16.984375 C 32.242188 -19.148438 33.875 -21.414062 35.375 -23.78125 C 36.695312 -25.851562 38.019531 -27.910156 39.34375 -29.953125 C 40.675781 -32.003906 41.976562 -34.097656 43.25 -36.234375 C 44.6875 -38.597656 46.15625 -40.960938 47.65625 -43.328125 C 49.15625 -45.691406 50.679688 -48.023438 52.234375 -50.328125 C 52.867188 -51.304688 53.53125 -52.257812 54.21875 -53.1875 C 54.914062 -54.113281 55.609375 -55.035156 56.296875 -55.953125 C 56.585938 -56.359375 56.890625 -56.71875 57.203125 -57.03125 C 57.523438 -57.351562 57.859375 -57.65625 58.203125 -57.9375 C 58.609375 -58.34375 59.210938 -58.546875 60.015625 -58.546875 C 60.765625 -58.546875 61.410156 -58.269531 61.953125 -57.71875 C 62.503906 -57.175781 62.722656 -56.5625 62.609375 -55.875 C 62.609375 -55.632812 62.59375 -55.425781 62.5625 -55.25 C 62.539062 -55.082031 62.5 -54.882812 62.4375 -54.65625 C 61.863281 -52.175781 61.375 -49.710938 60.96875 -47.265625 C 60.5625 -44.816406 60.160156 -42.320312 59.765625 -39.78125 C 59.179688 -36.03125 58.601562 -32.265625 58.03125 -28.484375 C 57.457031 -24.710938 56.878906 -20.953125 56.296875 -17.203125 C 56.128906 -15.992188 55.988281 -14.769531 55.875 -13.53125 C 55.757812 -12.289062 55.640625 -11.066406 55.515625 -9.859375 C 55.460938 -9.453125 55.460938 -9.050781 55.515625 -8.65625 C 55.515625 -8.476562 55.632812 -8.273438 55.875 -8.046875 C 56.15625 -7.816406 56.5 -7.898438 56.90625 -8.296875 C 57.019531 -8.410156 57.148438 -8.539062 57.296875 -8.6875 C 57.441406 -8.832031 57.570312 -8.992188 57.6875 -9.171875 C 58.488281 -10.265625 59.289062 -11.359375 60.09375 -12.453125 C 60.90625 -13.546875 61.6875 -14.640625 62.4375 -15.734375 C 64.570312 -19.140625 66.632812 -22.53125 68.625 -25.90625 C 70.613281 -29.28125 72.53125 -32.722656 74.375 -36.234375 C 74.550781 -36.578125 74.738281 -36.90625 74.9375 -37.21875 C 75.132812 -37.539062 75.320312 -37.875 75.5 -38.21875 C 76.476562 -40.007812 77.441406 -41.785156 78.390625 -43.546875 C 79.347656 -45.304688 80.285156 -47.078125 81.203125 -48.859375 C 82.066406 -50.585938 82.988281 -52.300781 83.96875 -54 C 84.957031 -55.707031 85.910156 -57.394531 86.828125 -59.0625 C 87.867188 -60.96875 89.140625 -62.757812 90.640625 -64.4375 C 91.210938 -65.0625 91.816406 -65.648438 92.453125 -66.203125 C 93.085938 -66.753906 93.78125 -67.226562 94.53125 -67.625 C 94.988281 -67.863281 95.59375 -67.984375 96.34375 -67.984375 C 97.269531 -67.984375 97.960938 -67.460938 98.421875 -66.421875 C 98.828125 -65.554688 98.679688 -64.71875 97.984375 -63.90625 C 97.929688 -63.789062 97.816406 -63.660156 97.640625 -63.515625 C 97.460938 -63.378906 97.316406 -63.253906 97.203125 -63.140625 C 95.992188 -62.328125 94.941406 -61.359375 94.046875 -60.234375 C 93.160156 -59.109375 92.367188 -57.941406 91.671875 -56.734375 C 90.398438 -54.597656 89.171875 -52.445312 87.984375 -50.28125 C 86.804688 -48.125 85.671875 -45.953125 84.578125 -43.765625 C 84.296875 -43.128906 83.976562 -42.492188 83.625 -41.859375 C 83.28125 -41.222656 82.9375 -40.585938 82.59375 -39.953125 C 81.15625 -37.304688 79.6875 -34.65625 78.1875 -32 C 76.6875 -29.34375 75.1875 -26.691406 73.6875 -24.046875 C 72.070312 -21.222656 70.398438 -18.394531 68.671875 -15.5625 C 66.941406 -12.738281 65.066406 -10 63.046875 -7.34375 C 62.179688 -6.25 61.285156 -5.171875 60.359375 -4.109375 C 59.441406 -3.046875 58.4375 -2.050781 57.34375 -1.125 C 56.9375 -0.71875 56.488281 -0.351562 56 -0.03125 C 55.507812 0.28125 54.976562 0.550781 54.40625 0.78125 C 53.476562 1.1875 52.609375 1.1875 51.796875 0.78125 C 50.992188 0.375 50.476562 -0.347656 50.25 -1.390625 C 50.1875 -1.671875 50.140625 -1.984375 50.109375 -2.328125 C 50.085938 -2.679688 50.078125 -3 50.078125 -3.28125 C 50.015625 -3.914062 50 -4.535156 50.03125 -5.140625 C 50.0625 -5.742188 50.078125 -6.421875 50.078125 -7.171875 Z M 50.078125 -7.171875 "/></g></g></g><g fill="#0e9f6e" fill-opacity="1"><g transform="translate(723.907543, 302.62381)"><g><path d="M 28.96875 -61.578125 C 30.988281 -61.578125 32.890625 -61.445312 34.671875 -61.1875 C 36.460938 -60.925781 38.222656 -60.59375 39.953125 -60.1875 C 42.023438 -59.789062 44.097656 -59.375 46.171875 -58.9375 C 48.253906 -58.507812 50.332031 -58.0625 52.40625 -57.59375 C 53.039062 -57.425781 53.707031 -57.34375 54.40625 -57.34375 C 54.976562 -57.34375 55.46875 -57.457031 55.875 -57.6875 C 56.332031 -57.914062 56.734375 -58.160156 57.078125 -58.421875 C 57.421875 -58.679688 57.796875 -58.925781 58.203125 -59.15625 C 59.640625 -59.90625 61.109375 -60.507812 62.609375 -60.96875 C 64.109375 -61.425781 65.695312 -61.570312 67.375 -61.40625 C 69.445312 -61.226562 71.257812 -60.273438 72.8125 -58.546875 C 73.507812 -57.859375 73.828125 -56.921875 73.765625 -55.734375 C 73.710938 -54.554688 73.335938 -53.5625 72.640625 -52.75 C 71.609375 -51.488281 70.253906 -50.710938 68.578125 -50.421875 C 66.734375 -50.078125 64.890625 -49.988281 63.046875 -50.15625 C 62.296875 -50.269531 61.5625 -50.351562 60.84375 -50.40625 C 60.125 -50.46875 59.414062 -50.585938 58.71875 -50.765625 C 57.96875 -50.878906 57.332031 -50.804688 56.8125 -50.546875 C 56.300781 -50.285156 55.8125 -49.867188 55.34375 -49.296875 C 54.769531 -48.484375 54.179688 -47.6875 53.578125 -46.90625 C 52.972656 -46.132812 52.351562 -45.347656 51.71875 -44.546875 C 51.425781 -44.140625 51.117188 -43.71875 50.796875 -43.28125 C 50.484375 -42.851562 50.15625 -42.4375 49.8125 -42.03125 C 48.375 -40.238281 47.019531 -38.363281 45.75 -36.40625 C 44.476562 -34.445312 43.269531 -32.457031 42.125 -30.4375 C 42.0625 -30.269531 41.984375 -30.097656 41.890625 -29.921875 C 41.804688 -29.753906 41.707031 -29.582031 41.59375 -29.40625 C 39.46875 -26.40625 37.492188 -23.332031 35.671875 -20.1875 C 33.859375 -17.050781 31.859375 -14.007812 29.671875 -11.0625 C 28.796875 -9.914062 27.894531 -8.78125 26.96875 -7.65625 C 26.050781 -6.53125 25.078125 -5.445312 24.046875 -4.40625 C 23.640625 -3.945312 23.175781 -3.5 22.65625 -3.0625 C 22.132812 -2.632812 21.617188 -2.21875 21.109375 -1.8125 C 19.023438 -0.375 16.914062 0.367188 14.78125 0.421875 C 12.65625 0.484375 10.492188 -0.03125 8.296875 -1.125 C 7.203125 -1.757812 6.25 -2.550781 5.4375 -3.5 C 4.632812 -4.445312 3.914062 -5.472656 3.28125 -6.578125 C 2.59375 -7.960938 2.015625 -9.390625 1.546875 -10.859375 C 1.085938 -12.328125 0.800781 -13.8125 0.6875 -15.3125 C 0.632812 -16.34375 0.609375 -17.390625 0.609375 -18.453125 C 0.609375 -19.523438 0.632812 -20.582031 0.6875 -21.625 C 0.6875 -22.019531 0.742188 -22.40625 0.859375 -22.78125 C 0.972656 -23.15625 1.117188 -23.546875 1.296875 -23.953125 C 1.585938 -24.535156 2.003906 -24.953125 2.546875 -25.203125 C 3.097656 -25.460938 3.660156 -25.535156 4.234375 -25.421875 C 5.566406 -25.023438 6.234375 -24.132812 6.234375 -22.75 C 6.171875 -22.113281 6.109375 -21.460938 6.046875 -20.796875 C 5.992188 -20.140625 5.96875 -19.460938 5.96875 -18.765625 C 5.851562 -15.648438 6.457031 -12.710938 7.78125 -9.953125 C 8.1875 -9.023438 8.734375 -8.128906 9.421875 -7.265625 C 10.515625 -5.992188 11.828125 -5.253906 13.359375 -5.046875 C 14.890625 -4.847656 16.316406 -5.210938 17.640625 -6.140625 C 18.273438 -6.597656 18.878906 -7.097656 19.453125 -7.640625 C 20.035156 -8.191406 20.613281 -8.757812 21.1875 -9.34375 C 22.625 -10.84375 23.945312 -12.425781 25.15625 -14.09375 C 26.375 -15.769531 27.53125 -17.441406 28.625 -19.109375 C 29.257812 -20.085938 29.847656 -21.066406 30.390625 -22.046875 C 30.941406 -23.035156 31.503906 -23.988281 32.078125 -24.90625 C 32.203125 -25.082031 32.304688 -25.253906 32.390625 -25.421875 C 32.472656 -25.597656 32.570312 -25.773438 32.6875 -25.953125 C 34.476562 -28.367188 36.109375 -30.875 37.578125 -33.46875 C 39.046875 -36.0625 40.585938 -38.597656 42.203125 -41.078125 C 42.492188 -41.535156 42.8125 -41.96875 43.15625 -42.375 C 43.5 -42.78125 43.816406 -43.1875 44.109375 -43.59375 C 44.972656 -44.738281 45.820312 -45.859375 46.65625 -46.953125 C 47.488281 -48.054688 48.335938 -49.15625 49.203125 -50.25 C 49.316406 -50.363281 49.429688 -50.503906 49.546875 -50.671875 C 49.671875 -50.847656 49.757812 -51.023438 49.8125 -51.203125 C 49.925781 -51.429688 49.941406 -51.703125 49.859375 -52.015625 C 49.773438 -52.335938 49.613281 -52.523438 49.375 -52.578125 C 48.976562 -52.691406 48.59375 -52.804688 48.21875 -52.921875 C 47.84375 -53.035156 47.453125 -53.125 47.046875 -53.1875 C 44.910156 -53.644531 42.773438 -54.078125 40.640625 -54.484375 C 38.515625 -54.890625 36.382812 -55.296875 34.25 -55.703125 C 31.820312 -56.210938 29.3125 -56.328125 26.71875 -56.046875 C 22.738281 -55.640625 19.484375 -53.820312 16.953125 -50.59375 C 16.316406 -49.726562 15.8125 -48.804688 15.4375 -47.828125 C 15.0625 -46.847656 14.816406 -45.8125 14.703125 -44.71875 C 14.523438 -43.675781 14.460938 -42.617188 14.515625 -41.546875 C 14.578125 -40.484375 14.695312 -39.4375 14.875 -38.40625 C 14.9375 -38 15.066406 -37.578125 15.265625 -37.140625 C 15.460938 -36.710938 15.648438 -36.265625 15.828125 -35.796875 C 16.054688 -35.222656 16.066406 -34.644531 15.859375 -34.0625 C 15.660156 -33.488281 15.273438 -33.03125 14.703125 -32.6875 C 14.242188 -32.34375 13.695312 -32.210938 13.0625 -32.296875 C 12.425781 -32.390625 11.90625 -32.664062 11.5 -33.125 C 10.226562 -34.507812 9.507812 -36.035156 9.34375 -37.703125 C 9.28125 -38.453125 9.21875 -39.171875 9.15625 -39.859375 C 9.101562 -40.554688 9.078125 -41.28125 9.078125 -42.03125 C 9.023438 -46.875 10.207031 -50.835938 12.625 -53.921875 C 15.050781 -57.003906 18.28125 -59.269531 22.3125 -60.71875 C 23.46875 -61.113281 24.617188 -61.335938 25.765625 -61.390625 C 26.921875 -61.453125 27.988281 -61.515625 28.96875 -61.578125 Z M 28.96875 -61.578125 "/></g></g></g></svg>