<svg xmlns="http://www.w3.org/2000/svg" xmlns:xlink="http://www.w3.org/1999/xlink" width="212" zoomAndPan="magnify" viewBox="0 0 159 47.25" height="63" preserveAspectRatio="xMidYMid meet" version="1.0"><defs><g/><clipPath id="ce175f3135"><path d="M 1.242188 10 L 18 10 L 18 36 L 1.242188 36 Z M 1.242188 10 " clip-rule="nonzero"/></clipPath><clipPath id="dab08428a1"><path d="M 1.242188 10 L 18 10 L 18 37 L 1.242188 37 Z M 1.242188 10 " clip-rule="nonzero"/></clipPath><clipPath id="c8ce4f157c"><path d="M 32 10 L 50.023438 10 L 50.023438 37 L 32 37 Z M 32 10 " clip-rule="nonzero"/></clipPath><clipPath id="ef08e2cbe6"><path d="M 16 4 L 34 4 L 34 42.757812 L 16 42.757812 Z M 16 4 " clip-rule="nonzero"/></clipPath><clipPath id="2b917a51d0"><path d="M 16 3.628906 L 34 3.628906 L 34 42.757812 L 16 42.757812 Z M 16 3.628906 " clip-rule="nonzero"/></clipPath></defs><g fill="#ffffff" fill-opacity="1"><g transform="translate(49.508378, 24.189496)"><g><path d="M 7.765625 0 L 4.21875 0 L 0.609375 -16.3125 L 4.078125 -16.3125 L 6.296875 -5.234375 L 9.484375 -16.3125 L 12.65625 -16.3125 L 15.8125 -5.28125 L 18.03125 -16.3125 L 21.390625 -16.3125 L 17.78125 0 L 14.234375 0 L 11 -11.390625 Z M 7.765625 0 "/></g></g></g><g fill="#ffffff" fill-opacity="1"><g transform="translate(70.612798, 24.189496)"><g><path d="M 1.265625 0 L 1.265625 -12.140625 L 4.453125 -12.140625 L 4.453125 -10.8125 C 4.835938 -11.34375 5.304688 -11.742188 5.859375 -12.015625 C 6.410156 -12.285156 7.019531 -12.421875 7.6875 -12.421875 C 8 -12.398438 8.257812 -12.367188 8.46875 -12.328125 C 8.675781 -12.296875 8.859375 -12.234375 9.015625 -12.140625 L 9.015625 -9.34375 C 8.785156 -9.445312 8.53125 -9.523438 8.25 -9.578125 C 7.96875 -9.640625 7.679688 -9.671875 7.390625 -9.671875 C 6.765625 -9.671875 6.191406 -9.515625 5.671875 -9.203125 C 5.148438 -8.890625 4.742188 -8.4375 4.453125 -7.84375 L 4.453125 0 Z M 1.265625 0 "/></g></g></g><g fill="#ffffff" fill-opacity="1"><g transform="translate(79.208191, 24.189496)"><g><path d="M 2.84375 -13.578125 C 2.34375 -13.578125 1.914062 -13.753906 1.5625 -14.109375 C 1.207031 -14.472656 1.03125 -14.90625 1.03125 -15.40625 C 1.03125 -15.894531 1.207031 -16.316406 1.5625 -16.671875 C 1.914062 -17.035156 2.34375 -17.21875 2.84375 -17.21875 C 3.34375 -17.21875 3.769531 -17.035156 4.125 -16.671875 C 4.476562 -16.316406 4.65625 -15.894531 4.65625 -15.40625 C 4.65625 -14.90625 4.476562 -14.472656 4.125 -14.109375 C 3.769531 -13.753906 3.34375 -13.578125 2.84375 -13.578125 Z M 4.453125 -12.140625 L 4.453125 0 L 1.265625 0 L 1.265625 -12.140625 Z M 4.453125 -12.140625 "/></g></g></g><g fill="#ffffff" fill-opacity="1"><g transform="translate(84.006621, 24.189496)"><g><path d="M 2.90625 -3.421875 L 2.90625 -9.453125 L 0.421875 -9.453125 L 0.421875 -12.140625 L 2.90625 -12.140625 L 2.90625 -15.234375 L 6.109375 -15.953125 L 6.109375 -12.140625 L 9.546875 -12.140625 L 9.546875 -9.453125 L 6.109375 -9.453125 L 6.109375 -4.078125 C 6.109375 -3.503906 6.226562 -3.097656 6.46875 -2.859375 C 6.71875 -2.628906 7.15625 -2.515625 7.78125 -2.515625 C 8.070312 -2.515625 8.347656 -2.53125 8.609375 -2.5625 C 8.878906 -2.601562 9.171875 -2.679688 9.484375 -2.796875 L 9.484375 -0.1875 C 9.140625 -0.0703125 8.726562 0.015625 8.25 0.078125 C 7.769531 0.148438 7.359375 0.1875 7.015625 0.1875 C 5.660156 0.1875 4.632812 -0.117188 3.9375 -0.734375 C 3.25 -1.347656 2.90625 -2.242188 2.90625 -3.421875 Z M 2.90625 -3.421875 "/></g></g></g><g fill="#ffffff" fill-opacity="1"><g transform="translate(92.998014, 24.189496)"><g><path d="M 12.140625 -1.515625 C 11.390625 -0.910156 10.625 -0.46875 9.84375 -0.1875 C 9.0625 0.09375 8.1875 0.234375 7.21875 0.234375 C 6.300781 0.234375 5.441406 0.0703125 4.640625 -0.25 C 3.847656 -0.582031 3.160156 -1.023438 2.578125 -1.578125 C 1.992188 -2.140625 1.535156 -2.804688 1.203125 -3.578125 C 0.867188 -4.347656 0.703125 -5.175781 0.703125 -6.0625 C 0.703125 -6.925781 0.859375 -7.742188 1.171875 -8.515625 C 1.492188 -9.285156 1.929688 -9.953125 2.484375 -10.515625 C 3.046875 -11.085938 3.710938 -11.535156 4.484375 -11.859375 C 5.253906 -12.179688 6.070312 -12.34375 6.9375 -12.34375 C 7.789062 -12.34375 8.585938 -12.175781 9.328125 -11.84375 C 10.066406 -11.507812 10.703125 -11.054688 11.234375 -10.484375 C 11.773438 -9.910156 12.195312 -9.222656 12.5 -8.421875 C 12.800781 -7.617188 12.953125 -6.753906 12.953125 -5.828125 L 12.953125 -4.984375 L 3.90625 -4.984375 C 4.125 -4.222656 4.546875 -3.609375 5.171875 -3.140625 C 5.796875 -2.679688 6.523438 -2.453125 7.359375 -2.453125 C 7.890625 -2.453125 8.382812 -2.535156 8.84375 -2.703125 C 9.3125 -2.867188 9.710938 -3.109375 10.046875 -3.421875 Z M 6.875 -9.71875 C 6.144531 -9.71875 5.515625 -9.492188 4.984375 -9.046875 C 4.453125 -8.609375 4.085938 -8.015625 3.890625 -7.265625 L 9.828125 -7.265625 C 9.628906 -7.984375 9.257812 -8.570312 8.71875 -9.03125 C 8.1875 -9.488281 7.570312 -9.71875 6.875 -9.71875 Z M 6.875 -9.71875 "/></g></g></g><g fill="#0e9f6e" fill-opacity="1"><g transform="translate(49.730286, 35.672078)"><g><path d="M 5.890625 0 L 5.3125 -1.90625 L 2.40625 -1.90625 L 1.828125 0 L 0 0 L 2.8125 -8.015625 L 4.890625 -8.015625 L 7.71875 0 Z M 4.90625 -3.328125 C 4.375 -5.046875 4.070312 -6.015625 4 -6.234375 C 3.9375 -6.460938 3.890625 -6.644531 3.859375 -6.78125 C 3.742188 -6.3125 3.398438 -5.160156 2.828125 -3.328125 Z M 4.90625 -3.328125 "/></g></g></g><g fill="#0e9f6e" fill-opacity="1"><g transform="translate(57.024864, 35.672078)"><g><path d="M 5.140625 -1.8125 C 5.140625 -1.1875 4.921875 -0.707031 4.484375 -0.375 C 4.046875 -0.0507812 3.394531 0.109375 2.53125 0.109375 C 2.082031 0.109375 1.703125 0.078125 1.390625 0.015625 C 1.078125 -0.046875 0.785156 -0.132812 0.515625 -0.25 L 0.515625 -1.625 C 0.828125 -1.476562 1.175781 -1.351562 1.5625 -1.25 C 1.945312 -1.15625 2.285156 -1.109375 2.578125 -1.109375 C 3.179688 -1.109375 3.484375 -1.285156 3.484375 -1.640625 C 3.484375 -1.765625 3.441406 -1.867188 3.359375 -1.953125 C 3.285156 -2.035156 3.148438 -2.128906 2.953125 -2.234375 C 2.753906 -2.335938 2.492188 -2.457031 2.171875 -2.59375 C 1.703125 -2.789062 1.351562 -2.972656 1.125 -3.140625 C 0.90625 -3.304688 0.742188 -3.5 0.640625 -3.71875 C 0.546875 -3.9375 0.5 -4.203125 0.5 -4.515625 C 0.5 -5.054688 0.707031 -5.472656 1.125 -5.765625 C 1.550781 -6.066406 2.148438 -6.21875 2.921875 -6.21875 C 3.660156 -6.21875 4.375 -6.054688 5.0625 -5.734375 L 4.5625 -4.546875 C 4.257812 -4.671875 3.972656 -4.773438 3.703125 -4.859375 C 3.441406 -4.941406 3.171875 -4.984375 2.890625 -4.984375 C 2.398438 -4.984375 2.15625 -4.851562 2.15625 -4.59375 C 2.15625 -4.4375 2.234375 -4.300781 2.390625 -4.1875 C 2.554688 -4.082031 2.90625 -3.925781 3.4375 -3.71875 C 3.914062 -3.519531 4.265625 -3.335938 4.484375 -3.171875 C 4.703125 -3.003906 4.863281 -2.8125 4.96875 -2.59375 C 5.082031 -2.375 5.140625 -2.113281 5.140625 -1.8125 Z M 5.140625 -1.8125 "/></g></g></g><g fill="#0e9f6e" fill-opacity="1"><g transform="translate(62.161297, 35.672078)"><g><path d="M 5.140625 -1.8125 C 5.140625 -1.1875 4.921875 -0.707031 4.484375 -0.375 C 4.046875 -0.0507812 3.394531 0.109375 2.53125 0.109375 C 2.082031 0.109375 1.703125 0.078125 1.390625 0.015625 C 1.078125 -0.046875 0.785156 -0.132812 0.515625 -0.25 L 0.515625 -1.625 C 0.828125 -1.476562 1.175781 -1.351562 1.5625 -1.25 C 1.945312 -1.15625 2.285156 -1.109375 2.578125 -1.109375 C 3.179688 -1.109375 3.484375 -1.285156 3.484375 -1.640625 C 3.484375 -1.765625 3.441406 -1.867188 3.359375 -1.953125 C 3.285156 -2.035156 3.148438 -2.128906 2.953125 -2.234375 C 2.753906 -2.335938 2.492188 -2.457031 2.171875 -2.59375 C 1.703125 -2.789062 1.351562 -2.972656 1.125 -3.140625 C 0.90625 -3.304688 0.742188 -3.5 0.640625 -3.71875 C 0.546875 -3.9375 0.5 -4.203125 0.5 -4.515625 C 0.5 -5.054688 0.707031 -5.472656 1.125 -5.765625 C 1.550781 -6.066406 2.148438 -6.21875 2.921875 -6.21875 C 3.660156 -6.21875 4.375 -6.054688 5.0625 -5.734375 L 4.5625 -4.546875 C 4.257812 -4.671875 3.972656 -4.773438 3.703125 -4.859375 C 3.441406 -4.941406 3.171875 -4.984375 2.890625 -4.984375 C 2.398438 -4.984375 2.15625 -4.851562 2.15625 -4.59375 C 2.15625 -4.4375 2.234375 -4.300781 2.390625 -4.1875 C 2.554688 -4.082031 2.90625 -3.925781 3.4375 -3.71875 C 3.914062 -3.519531 4.265625 -3.335938 4.484375 -3.171875 C 4.703125 -3.003906 4.863281 -2.8125 4.96875 -2.59375 C 5.082031 -2.375 5.140625 -2.113281 5.140625 -1.8125 Z M 5.140625 -1.8125 "/></g></g></g><g fill="#0e9f6e" fill-opacity="1"><g transform="translate(67.297729, 35.672078)"><g><path d="M 0.796875 -7.6875 C 0.796875 -8.226562 1.097656 -8.5 1.703125 -8.5 C 2.304688 -8.5 2.609375 -8.226562 2.609375 -7.6875 C 2.609375 -7.425781 2.53125 -7.222656 2.375 -7.078125 C 2.226562 -6.929688 2.003906 -6.859375 1.703125 -6.859375 C 1.097656 -6.859375 0.796875 -7.132812 0.796875 -7.6875 Z M 2.546875 0 L 0.875 0 L 0.875 -6.109375 L 2.546875 -6.109375 Z M 2.546875 0 "/></g></g></g><g fill="#0e9f6e" fill-opacity="1"><g transform="translate(70.286944, 35.672078)"><g><path d="M 3.40625 -1.203125 C 3.851562 -1.203125 4.171875 -1.328125 4.359375 -1.578125 C 4.554688 -1.835938 4.65625 -2.253906 4.65625 -2.828125 L 4.65625 -3.03125 C 4.65625 -3.6875 4.550781 -4.15625 4.34375 -4.4375 C 4.144531 -4.726562 3.820312 -4.875 3.375 -4.875 C 2.59375 -4.875 2.203125 -4.253906 2.203125 -3.015625 C 2.203125 -2.410156 2.296875 -1.957031 2.484375 -1.65625 C 2.679688 -1.351562 2.988281 -1.203125 3.40625 -1.203125 Z M 6.21875 0.015625 C 6.21875 0.890625 5.957031 1.550781 5.4375 2 C 4.925781 2.457031 4.164062 2.6875 3.15625 2.6875 C 2.257812 2.6875 1.5 2.566406 0.875 2.328125 L 0.875 1 C 1.613281 1.3125 2.40625 1.46875 3.25 1.46875 C 4.113281 1.46875 4.546875 1.003906 4.546875 0.078125 L 4.546875 -0.046875 L 4.59375 -0.796875 L 4.546875 -0.796875 C 4.148438 -0.191406 3.570312 0.109375 2.8125 0.109375 C 2.070312 0.109375 1.5 -0.171875 1.09375 -0.734375 C 0.695312 -1.296875 0.5 -2.066406 0.5 -3.046875 C 0.5 -4.046875 0.707031 -4.820312 1.125 -5.375 C 1.539062 -5.9375 2.113281 -6.21875 2.84375 -6.21875 C 3.601562 -6.21875 4.195312 -5.921875 4.625 -5.328125 L 4.671875 -5.328125 L 4.796875 -6.109375 L 6.21875 -6.109375 Z M 6.21875 0.015625 "/></g></g></g><g fill="#0e9f6e" fill-opacity="1"><g transform="translate(76.942273, 35.672078)"><g><path d="M 6.515625 0 L 4.84375 0 L 4.84375 -3.5625 C 4.84375 -4.007812 4.765625 -4.34375 4.609375 -4.5625 C 4.453125 -4.78125 4.203125 -4.890625 3.859375 -4.890625 C 3.390625 -4.890625 3.050781 -4.734375 2.84375 -4.421875 C 2.644531 -4.109375 2.546875 -3.59375 2.546875 -2.875 L 2.546875 0 L 0.875 0 L 0.875 -6.109375 L 2.140625 -6.109375 L 2.375 -5.328125 L 2.46875 -5.328125 C 2.65625 -5.617188 2.910156 -5.835938 3.234375 -5.984375 C 3.554688 -6.140625 3.925781 -6.21875 4.34375 -6.21875 C 5.050781 -6.21875 5.585938 -6.023438 5.953125 -5.640625 C 6.328125 -5.253906 6.515625 -4.703125 6.515625 -3.984375 Z M 6.515625 0 "/></g></g></g><g fill="#0e9f6e" fill-opacity="1"><g transform="translate(83.870784, 35.672078)"><g><path d="M 6.34375 0 L 4.671875 0 L 4.671875 -3.5625 C 4.671875 -4.007812 4.597656 -4.34375 4.453125 -4.5625 C 4.304688 -4.78125 4.078125 -4.890625 3.765625 -4.890625 C 3.335938 -4.890625 3.023438 -4.734375 2.828125 -4.421875 C 2.640625 -4.109375 2.546875 -3.59375 2.546875 -2.875 L 2.546875 0 L 0.875 0 L 0.875 -6.109375 L 2.140625 -6.109375 L 2.375 -5.328125 L 2.46875 -5.328125 C 2.625 -5.609375 2.859375 -5.828125 3.171875 -5.984375 C 3.484375 -6.140625 3.835938 -6.21875 4.234375 -6.21875 C 5.148438 -6.21875 5.769531 -5.921875 6.09375 -5.328125 L 6.25 -5.328125 C 6.40625 -5.609375 6.644531 -5.828125 6.96875 -5.984375 C 7.289062 -6.140625 7.648438 -6.21875 8.046875 -6.21875 C 8.734375 -6.21875 9.253906 -6.039062 9.609375 -5.6875 C 9.972656 -5.332031 10.15625 -4.765625 10.15625 -3.984375 L 10.15625 0 L 8.484375 0 L 8.484375 -3.5625 C 8.484375 -4.007812 8.40625 -4.34375 8.25 -4.5625 C 8.101562 -4.78125 7.875 -4.890625 7.5625 -4.890625 C 7.15625 -4.890625 6.847656 -4.742188 6.640625 -4.453125 C 6.441406 -4.160156 6.34375 -3.695312 6.34375 -3.0625 Z M 6.34375 0 "/></g></g></g><g fill="#0e9f6e" fill-opacity="1"><g transform="translate(94.432629, 35.672078)"><g><path d="M 3.40625 -5.03125 C 3.050781 -5.03125 2.769531 -4.914062 2.5625 -4.6875 C 2.363281 -4.46875 2.253906 -4.15625 2.234375 -3.75 L 4.5625 -3.75 C 4.5625 -4.15625 4.457031 -4.46875 4.25 -4.6875 C 4.039062 -4.914062 3.757812 -5.03125 3.40625 -5.03125 Z M 3.640625 0.109375 C 2.648438 0.109375 1.878906 -0.160156 1.328125 -0.703125 C 0.773438 -1.242188 0.5 -2.015625 0.5 -3.015625 C 0.5 -4.035156 0.753906 -4.820312 1.265625 -5.375 C 1.773438 -5.9375 2.484375 -6.21875 3.390625 -6.21875 C 4.253906 -6.21875 4.925781 -5.972656 5.40625 -5.484375 C 5.882812 -4.992188 6.125 -4.316406 6.125 -3.453125 L 6.125 -2.640625 L 2.1875 -2.640625 C 2.207031 -2.160156 2.347656 -1.785156 2.609375 -1.515625 C 2.867188 -1.253906 3.238281 -1.125 3.71875 -1.125 C 4.082031 -1.125 4.425781 -1.160156 4.75 -1.234375 C 5.082031 -1.316406 5.425781 -1.441406 5.78125 -1.609375 L 5.78125 -0.328125 C 5.488281 -0.179688 5.175781 -0.0703125 4.84375 0 C 4.519531 0.0703125 4.117188 0.109375 3.640625 0.109375 Z M 3.640625 0.109375 "/></g></g></g><g fill="#0e9f6e" fill-opacity="1"><g transform="translate(100.618083, 35.672078)"><g><path d="M 6.515625 0 L 4.84375 0 L 4.84375 -3.5625 C 4.84375 -4.007812 4.765625 -4.34375 4.609375 -4.5625 C 4.453125 -4.78125 4.203125 -4.890625 3.859375 -4.890625 C 3.390625 -4.890625 3.050781 -4.734375 2.84375 -4.421875 C 2.644531 -4.109375 2.546875 -3.59375 2.546875 -2.875 L 2.546875 0 L 0.875 0 L 0.875 -6.109375 L 2.140625 -6.109375 L 2.375 -5.328125 L 2.46875 -5.328125 C 2.65625 -5.617188 2.910156 -5.835938 3.234375 -5.984375 C 3.554688 -6.140625 3.925781 -6.21875 4.34375 -6.21875 C 5.050781 -6.21875 5.585938 -6.023438 5.953125 -5.640625 C 6.328125 -5.253906 6.515625 -4.703125 6.515625 -3.984375 Z M 6.515625 0 "/></g></g></g><g fill="#0e9f6e" fill-opacity="1"><g transform="translate(107.546595, 35.672078)"><g><path d="M 3.453125 -1.21875 C 3.742188 -1.21875 4.09375 -1.28125 4.5 -1.40625 L 4.5 -0.171875 C 4.082031 0.015625 3.570312 0.109375 2.96875 0.109375 C 2.300781 0.109375 1.8125 -0.0546875 1.5 -0.390625 C 1.195312 -0.734375 1.046875 -1.238281 1.046875 -1.90625 L 1.046875 -4.859375 L 0.25 -4.859375 L 0.25 -5.5625 L 1.171875 -6.125 L 1.65625 -7.40625 L 2.71875 -7.40625 L 2.71875 -6.109375 L 4.4375 -6.109375 L 4.4375 -4.859375 L 2.71875 -4.859375 L 2.71875 -1.90625 C 2.71875 -1.675781 2.785156 -1.503906 2.921875 -1.390625 C 3.054688 -1.273438 3.234375 -1.21875 3.453125 -1.21875 Z M 3.453125 -1.21875 "/></g></g></g><g clip-path="url(#ce175f3135)"><path fill="#0e9f6e" d="M 15.773438 35.632812 C 15.492188 35.632812 15.21875 35.539062 15 35.367188 L 0.855469 24.238281 C 0.554688 24 0.378906 23.640625 0.378906 23.253906 C 0.378906 22.871094 0.554688 22.511719 0.855469 22.269531 L 15 11.144531 C 15.21875 10.972656 15.492188 10.878906 15.773438 10.878906 C 16.160156 10.878906 16.519531 11.050781 16.757812 11.355469 C 16.964844 11.617188 17.058594 11.945312 17.015625 12.277344 C 16.976562 12.609375 16.808594 12.90625 16.546875 13.113281 L 3.660156 23.253906 L 16.546875 33.394531 C 16.808594 33.605469 16.976562 33.902344 17.015625 34.234375 C 17.058594 34.566406 16.964844 34.890625 16.757812 35.15625 C 16.519531 35.460938 16.160156 35.632812 15.773438 35.632812 " fill-opacity="1" fill-rule="nonzero"/></g><g clip-path="url(#dab08428a1)"><path fill="#000000" d="M 15.773438 10.34375 C 15.375 10.34375 14.984375 10.476562 14.667969 10.726562 L 0.527344 21.851562 C 0.09375 22.195312 -0.15625 22.707031 -0.15625 23.253906 C -0.15625 23.804688 0.09375 24.316406 0.527344 24.660156 L 14.667969 35.785156 C 14.980469 36.03125 15.375 36.167969 15.773438 36.167969 C 16.324219 36.167969 16.835938 35.917969 17.175781 35.484375 C 17.472656 35.113281 17.601562 34.644531 17.546875 34.171875 C 17.492188 33.695312 17.253906 33.273438 16.878906 32.976562 L 4.519531 23.253906 L 16.878906 13.535156 C 17.253906 13.238281 17.492188 12.816406 17.546875 12.339844 C 17.601562 11.867188 17.472656 11.398438 17.175781 11.023438 C 16.835938 10.589844 16.324219 10.34375 15.773438 10.34375 Z M 15.773438 11.410156 C 15.984375 11.410156 16.199219 11.503906 16.339844 11.683594 C 16.585938 11.996094 16.53125 12.449219 16.21875 12.695312 L 2.796875 23.253906 L 16.21875 33.816406 C 16.53125 34.0625 16.585938 34.515625 16.339844 34.824219 C 16.199219 35.007812 15.984375 35.101562 15.773438 35.101562 C 15.617188 35.101562 15.460938 35.050781 15.328125 34.945312 L 1.1875 23.820312 C 1.015625 23.683594 0.914062 23.476562 0.914062 23.253906 C 0.914062 23.035156 1.015625 22.828125 1.1875 22.691406 L 15.328125 11.5625 C 15.460938 11.460938 15.617188 11.410156 15.773438 11.410156 " fill-opacity="1" fill-rule="nonzero"/></g><path fill="#0e9f6e" d="M 34.433594 35.632812 C 34.046875 35.632812 33.6875 35.460938 33.445312 35.15625 C 33.019531 34.613281 33.113281 33.824219 33.65625 33.394531 L 46.546875 23.253906 L 33.65625 13.113281 C 33.113281 12.6875 33.019531 11.898438 33.445312 11.355469 C 33.6875 11.050781 34.046875 10.878906 34.433594 10.878906 C 34.710938 10.878906 34.988281 10.972656 35.207031 11.144531 L 49.347656 22.269531 C 49.652344 22.511719 49.824219 22.871094 49.824219 23.253906 C 49.824219 23.640625 49.652344 24 49.347656 24.238281 L 35.207031 35.367188 C 34.988281 35.539062 34.710938 35.632812 34.433594 35.632812 " fill-opacity="1" fill-rule="nonzero"/><g clip-path="url(#c8ce4f157c)"><path fill="#000000" d="M 34.433594 10.34375 C 33.882812 10.34375 33.371094 10.589844 33.027344 11.023438 C 32.417969 11.800781 32.550781 12.921875 33.328125 13.535156 L 45.683594 23.253906 L 33.328125 32.976562 C 32.550781 33.585938 32.417969 34.710938 33.027344 35.484375 C 33.371094 35.917969 33.882812 36.167969 34.433594 36.167969 C 34.832031 36.167969 35.222656 36.03125 35.535156 35.785156 L 49.679688 24.660156 C 50.109375 24.316406 50.359375 23.804688 50.359375 23.253906 C 50.359375 22.707031 50.109375 22.195312 49.679688 21.851562 L 35.539062 10.726562 C 35.222656 10.476562 34.832031 10.34375 34.433594 10.34375 Z M 34.433594 11.410156 C 34.589844 11.410156 34.746094 11.460938 34.875 11.5625 L 49.019531 22.691406 C 49.191406 22.828125 49.292969 23.035156 49.292969 23.253906 C 49.292969 23.476562 49.191406 23.683594 49.019531 23.820312 L 34.875 34.945312 C 34.746094 35.050781 34.589844 35.101562 34.433594 35.101562 C 34.21875 35.101562 34.007812 35.007812 33.867188 34.824219 C 33.621094 34.515625 33.675781 34.0625 33.984375 33.816406 L 47.410156 23.253906 L 33.984375 12.695312 C 33.675781 12.449219 33.621094 11.996094 33.867188 11.683594 C 34.007812 11.503906 34.222656 11.410156 34.433594 11.410156 " fill-opacity="1" fill-rule="nonzero"/></g><g clip-path="url(#ef08e2cbe6)"><path fill="#0e9f6e" d="M 18.074219 42.347656 C 17.917969 42.347656 17.769531 42.316406 17.621094 42.261719 C 17.3125 42.140625 17.0625 41.90625 16.929688 41.601562 C 16.792969 41.292969 16.785156 40.953125 16.90625 40.644531 L 30.71875 4.964844 C 30.902344 4.484375 31.371094 4.164062 31.886719 4.164062 C 32.039062 4.164062 32.195312 4.191406 32.339844 4.25 C 32.980469 4.5 33.304688 5.226562 33.054688 5.871094 L 19.242188 41.546875 C 19.058594 42.027344 18.585938 42.347656 18.074219 42.347656 " fill-opacity="1" fill-rule="nonzero"/></g><g clip-path="url(#2b917a51d0)"><path fill="#000000" d="M 31.886719 3.628906 C 31.152344 3.628906 30.484375 4.089844 30.222656 4.769531 L 16.410156 40.449219 C 16.238281 40.894531 16.25 41.378906 16.441406 41.816406 C 16.636719 42.253906 16.984375 42.589844 17.429688 42.761719 C 17.636719 42.839844 17.851562 42.882812 18.074219 42.882812 C 18.808594 42.882812 19.476562 42.421875 19.742188 41.738281 L 33.550781 6.0625 C 33.90625 5.144531 33.449219 4.105469 32.527344 3.75 C 32.324219 3.671875 32.105469 3.628906 31.886719 3.628906 Z M 31.886719 4.695312 C 31.972656 4.695312 32.058594 4.714844 32.144531 4.746094 C 32.515625 4.890625 32.699219 5.304688 32.558594 5.675781 L 18.746094 41.355469 C 18.636719 41.640625 18.363281 41.816406 18.074219 41.816406 C 17.988281 41.816406 17.898438 41.800781 17.816406 41.765625 C 17.445312 41.621094 17.261719 41.203125 17.40625 40.835938 L 31.214844 5.15625 C 31.324219 4.871094 31.597656 4.695312 31.886719 4.695312 " fill-opacity="1" fill-rule="nonzero"/></g></svg>